<?xml version="1.0" encoding="UTF-8"?>
<svg version="1.1" xmlns="http://www.w3.org/2000/svg" width="500" height="500">
<path d="M0 0 C1.98 0 3.96 0 6 0 C6.42821045 0.94319092 6.8564209 1.88638184 7.29760742 2.8581543 C8.89848546 6.3763983 10.51406513 9.88772704 12.1340332 13.3972168 C12.83138503 14.91329038 13.52480648 16.43117857 14.21411133 17.95092773 C15.20912116 20.14282305 16.21836976 22.32767122 17.23046875 24.51171875 C17.53276901 25.18587326 17.83506927 25.86002777 18.14653015 26.55461121 C20.16996674 30.87416339 22.54090837 33.64533378 26 37 C26 39.92610619 25.36354647 41.39408922 23.875 43.875 C22 45 22 45 18.4375 44.875 C15 44 15 44 13 41 C12.88785156 39.824375 12.77570313 38.64875 12.66015625 37.4375 C12.10397952 32.09820341 9.81920737 27.74882541 7.4375 23 C7.01275391 22.12988281 6.58800781 21.25976562 6.15039062 20.36328125 C5.11054303 18.23685134 4.06036307 16.11625339 3 14 C0.74340695 16.80903866 -0.78021832 19.48350777 -2.15625 22.80859375 C-2.53910156 23.72060547 -2.92195313 24.63261719 -3.31640625 25.57226562 C-3.70699219 26.51779297 -4.09757812 27.46332031 -4.5 28.4375 C-8.91329116 39.07746432 -8.91329116 39.07746432 -12 44 C-12.68266938 45.56780345 -13.32907947 47.1519169 -13.9375 48.75 C-16.48554157 55.27453068 -19.28102219 61.62122834 -22.4375 67.875 C-27.63364938 77.51802931 -27.63364938 77.51802931 -30.5 87.9375 C-31 91 -31 91 -33.1875 93.5625 C-36 95 -36 95 -39.1875 94.5625 C-42 93 -42 93 -43.5 90.625 C-44 88 -44 88 -43.375 85.75 C-42 84 -42 84 -39.99609375 83.62109375 C-39.33738281 83.41613281 -38.67867187 83.21117187 -38 83 C-37.2726192 80.95640634 -36.56760503 78.90288226 -35.95825195 76.82104492 C-34.86109023 73.59105673 -33.41970881 70.70743279 -31.85546875 67.67578125 C-27.87007382 59.84886894 -24.23514431 51.88023884 -20.625 43.875 C-19.96599929 42.41996669 -19.30673548 40.96505251 -18.6472168 39.51025391 C-15.80369713 33.23318655 -12.97309671 26.95058326 -10.16796875 20.65625 C-9.76175293 19.74633301 -9.35553711 18.83641602 -8.93701172 17.89892578 C-8.21762899 16.28429734 -7.50149155 14.66821659 -6.78955078 13.05029297 C-4.77613879 8.52550631 -2.52314537 4.2630527 0 0 Z " fill="#51DC76" transform="translate(247,142)"/>
<path d="M0 0 C0.92039062 0.21398437 1.84078125 0.42796875 2.7890625 0.6484375 C3.72492188 0.88820313 4.66078125 1.12796875 5.625 1.375 C6.56601562 1.60960937 7.50703125 1.84421875 8.4765625 2.0859375 C11.09632151 3.03489045 12.31617094 3.80826184 14 6 C14.59636329 9.3225955 14.29109393 10.57455503 12.375 13.375 C10 15 10 15 7.0625 15.0625 C4 14 4 14 1.5 11.4375 C-0.74547206 8.76002745 -0.74547206 8.76002745 -3.68115234 8.65356445 C-7.70911934 9.07402092 -10.96995789 10.42483245 -14.6015625 12.10546875 C-15.31927826 12.42655106 -16.03699402 12.74763336 -16.77645874 13.07844543 C-19.06415833 14.10440071 -21.34462998 15.14536945 -23.625 16.1875 C-25.87844408 17.20530154 -28.13329109 18.21994496 -30.38827515 19.23432922 C-31.85927843 19.89638718 -33.32968135 20.55978075 -34.79946899 21.22453308 C-39.98565464 23.56514976 -45.21161438 25.7899716 -50.47509766 27.9519043 C-52.67667314 28.8657859 -54.85328475 29.81519129 -57.0234375 30.80078125 C-58.12945312 31.29964844 -59.23546875 31.79851562 -60.375 32.3125 C-61.49648437 32.82425781 -62.61796875 33.33601563 -63.7734375 33.86328125 C-67.08230839 35.02899727 -69.52267732 35.22586839 -73 35 C-74.00630699 32.4003736 -74.22817793 30.6112331 -73.24609375 27.98046875 C-72.52221096 26.4552397 -71.78866332 24.93457022 -71.046875 23.41796875 C-69.69220183 20.28907812 -69.11652872 17.20305378 -68.58984375 13.84765625 C-68 12 -68 12 -65 10 C-62.16920408 9.64615051 -60.63169911 9.6079109 -58.1875 11.125 C-56.46498119 13.84476654 -56.67144401 15.84586249 -57 19 C-57.66 19.99 -58.32 20.98 -59 22 C-45.10911201 16.61470705 -31.47746989 10.73840286 -17.88671875 4.63671875 C-16.85724121 4.1782959 -15.82776367 3.71987305 -14.76708984 3.24755859 C-13.11169252 2.50121306 -11.46323472 1.73868483 -9.83056641 0.94384766 C-6.09053651 -0.83591853 -3.95895806 -1.26840404 0 0 Z M-62 22 C-61.67 22.66 -61.34 23.32 -61 24 C-60.34 23.34 -59.68 22.68 -59 22 C-59.99 22 -60.98 22 -62 22 Z " fill="#23E656" transform="translate(253,259)"/>
<path d="M0 0 C1.08242618 3.24727855 2.14899399 6.49020549 3.14453125 9.765625 C5.26175533 16.10316099 8.10665256 22.1246265 10.89672852 28.18615723 C11.89134973 30.34803731 12.87890246 32.51303776 13.86523438 34.67871094 C17.15467658 41.88674801 20.4945012 49.06761556 23.9140625 56.21484375 C24.81986755 58.11998661 25.72493979 60.0254763 26.62994385 61.93099976 C27.48494356 63.71852195 28.35538205 65.4986332 29.22607422 67.27856445 C29.73928223 68.35710693 30.25249023 69.43564941 30.78125 70.546875 C31.23564453 71.48370117 31.69003906 72.42052734 32.15820312 73.38574219 C33.11876525 76.36883362 32.87867796 78.0294236 32 81 C25.3082833 80.67089918 20.61278145 79.16342497 14.67578125 76.05859375 C11.60113032 74.842199 9.27895899 74.86337671 6 75 C3.6875 74.4375 3.6875 74.4375 2 73 C0.39285714 67.10714286 0.39285714 67.10714286 2.0625 64.0625 C4.91279226 62.49943651 6.80080869 62.54297267 10 63 C11.37701298 64.28817344 12.70644173 65.62804426 14 67 C16.28719352 68.18576844 18.5890521 69.07271234 21 70 C20.44957031 68.93007813 19.89914062 67.86015625 19.33203125 66.7578125 C16.56602396 61.22579792 14.14540023 55.54872069 11.6875 49.875 C8.14010273 41.74099127 4.47911992 33.72286537 0.4375 25.82421875 C-5 15.14130435 -5 15.14130435 -5 11 C-5.61875 10.773125 -6.2375 10.54625 -6.875 10.3125 C-9.69126741 8.57304072 -10.24101587 7.18773336 -11 4 C-10.25 1.75 -10.25 1.75 -9 0 C-5.93109813 -1.53445094 -3.29905734 -0.54984289 0 0 Z " fill="#5AE07E" transform="translate(288,213)"/>
<path d="M0 0 C0.66 0 1.32 0 2 0 C1.21824485 4.84688192 -0.39844278 9.3766367 -2 14 C-2.66 14 -3.32 14 -4 14 C-4.04125 15.216875 -4.0825 16.43375 -4.125 17.6875 C-4.71076336 23.30550316 -7.06900803 27.81225122 -9.625 32.7890625 C-11.09921929 36.2316996 -11.4917118 39.30938569 -12 43 C-14.1875 45.5625 -14.1875 45.5625 -17 47 C-20.1875 46.5625 -20.1875 46.5625 -23 45 C-24.5 42.625 -24.5 42.625 -25 40 C-24.375 37.75 -24.375 37.75 -23 36 C-22.33742187 35.87367188 -21.67484375 35.74734375 -20.9921875 35.6171875 C-20.33476562 35.41351563 -19.67734375 35.20984375 -19 35 C-18.31110242 33.00219703 -17.64132008 30.9961553 -17.05859375 28.96484375 C-14.8043449 22.65128333 -11.24474561 16.84979079 -8 11 C-7.01 11 -6.02 11 -5 11 C-4.731875 10.29875 -4.46375 9.5975 -4.1875 8.875 C-2.9318551 5.8350176 -1.49764877 2.9272226 0 0 Z " fill="#31E561" transform="translate(228,190)"/>
<path d="M0 0 C0.33 0 0.66 0 1 0 C0.88512252 1.58409994 0.75765492 3.16728963 0.625 4.75 C0.55539063 5.63171875 0.48578125 6.5134375 0.4140625 7.421875 C0.00149945 9.99066382 -0.71160957 11.75841015 -2 14 C-1.319375 13.2575 -1.319375 13.2575 -0.625 12.5 C1 11 1 11 3 11 C1.08084318 17.39718939 -1.46878294 23.07984805 -4.51953125 29.015625 C-6.23884443 32.48147004 -7.66579441 36.00614121 -9.06640625 39.609375 C-10.02731663 42.06994887 -11.02430303 44.50851086 -12.0625 46.9375 C-12.36285156 47.64777344 -12.66320312 48.35804688 -12.97265625 49.08984375 C-14.06619908 51.12308498 -15.29477905 52.4590213 -17 54 C-17 52.68 -17 51.36 -17 50 C-16.34 50 -15.68 50 -15 50 C-14.8453125 48.4840625 -14.8453125 48.4840625 -14.6875 46.9375 C-13.96295233 42.78781792 -12.77730734 39.78643737 -11 36 C-13.81484045 37.40742022 -14.27483399 39.25557592 -15.625 42.0625 C-16.07101563 42.98160156 -16.51703125 43.90070313 -16.9765625 44.84765625 C-17.31429687 45.55792969 -17.65203125 46.26820313 -18 47 C-18.99 47 -19.98 47 -21 47 C-19.66083428 42.75573427 -18.05907096 38.77523873 -16.171875 34.74609375 C-15.61886719 33.56080078 -15.06585938 32.37550781 -14.49609375 31.15429688 C-13.91417365 29.91531237 -13.33214207 28.67638023 -12.75 27.4375 C-12.18328593 26.22605541 -11.61687749 25.01446779 -11.05078125 23.80273438 C-9.92867622 21.40174059 -8.80563845 19.00118249 -7.68164062 16.60107422 C-5.10167637 11.07632498 -2.54924329 5.53898933 0 0 Z " fill="#5FDF7E" transform="translate(241,154)"/>
<path d="M0 0 C2 2 2 2 2.1875 4.5 C2 7 2 7 1 9 C1.33 9.66 1.66 10.32 2 11 C2.1875 14.5 2.1875 14.5 2 18 C-0.736221 20.736221 -2.96717156 20.75763694 -6.73046875 21.0859375 C-9 21 -9 21 -12.125 19.5 C-14 17 -14 17 -13.75 13.3125 C-13.5025 12.219375 -13.255 11.12625 -13 10 C-13.33 9.67 -13.66 9.34 -14 9 C-13.66 2.88 -13.66 2.88 -11.5 0 C-7.66886945 -1.53245222 -3.95766354 -1.01615685 0 0 Z M-8 4 C-8.33 4.66 -8.66 5.32 -9 6 C-8.67 6.66 -8.34 7.32 -8 8 C-6.02 8 -4.04 8 -2 8 C-2.33 6.68 -2.66 5.36 -3 4 C-4.65 4 -6.3 4 -8 4 Z M-9 13 C-8.34 14.32 -7.68 15.64 -7 17 C-5.68 16.67 -4.36 16.34 -3 16 C-3 14.68 -3 13.36 -3 12 C-6.7763932 11.7018576 -6.7763932 11.7018576 -9 13 Z " fill="#A8E0B5" transform="translate(152,377)"/>
<path d="M0 0 C1.22589844 0.15275391 1.22589844 0.15275391 2.4765625 0.30859375 C3.41628906 0.43427734 3.41628906 0.43427734 4.375 0.5625 C6.53705669 4.87836125 6.44486614 8.11493225 6 12.875 C5.88914062 14.12925781 5.77828125 15.38351562 5.6640625 16.67578125 C5.52097656 18.10470703 5.52097656 18.10470703 5.375 19.5625 C1.46633749 21.21591054 -1.34099808 22.10939386 -5.625 21.5625 C-7.78125 19.98046875 -7.78125 19.98046875 -9.625 17.5625 C-10.12109375 14.21484375 -10.12109375 14.21484375 -10.0625 10.5 C-10.06121094 9.27152344 -10.05992187 8.04304688 -10.05859375 6.77734375 C-9.625 3.5625 -9.625 3.5625 -8.22265625 1.69140625 C-5.18607442 -0.45424693 -3.63942589 -0.46792619 0 0 Z M-3.625 4.5625 C-3.625 8.8525 -3.625 13.1425 -3.625 17.5625 C-1.975 17.2325 -0.325 16.9025 1.375 16.5625 C1.375 12.6025 1.375 8.6425 1.375 4.5625 C-0.275 4.5625 -1.925 4.5625 -3.625 4.5625 Z " fill="#6BC683" transform="translate(318.625,376.4375)"/>
<path d="M0 0 C1.9375 1 1.9375 1 3 3 C3.06519909 4.95597262 3.11766548 6.91594358 3.03125 8.87109375 C2.93314247 11.2936473 2.93314247 11.2936473 3.625 14.8125 C4 18 4 18 2 21 C-0.0234375 21.58203125 -0.0234375 21.58203125 -2.375 21.8125 C-3.14585937 21.90144531 -3.91671875 21.99039062 -4.7109375 22.08203125 C-7.33516195 21.98798908 -8.80028332 21.40957455 -11 20 C-11.98943167 17.71669615 -12.12228916 16.47387048 -11.5 14.0625 C-10.82223765 11.93945825 -10.82223765 11.93945825 -11.5625 9.5625 C-12.10895683 6.3618243 -11.53039515 4.83123103 -10 2 C-6.30513897 -0.46324069 -4.36706908 -0.38991688 0 0 Z M-7 5 C-6.67 6.32 -6.34 7.64 -6 9 C-4.35 8.67 -2.7 8.34 -1 8 C-1.33 7.01 -1.66 6.02 -2 5 C-3.65 5 -5.3 5 -7 5 Z M-7 14 C-7 14.99 -7 15.98 -7 17 C-4.525 17.495 -4.525 17.495 -2 18 C-1.67 16.68 -1.34 15.36 -1 14 C-4.04913228 12.98888907 -4.04913228 12.98888907 -7 14 Z " fill="#5CCA7B" transform="translate(358,376)"/>
<path d="M0 0 C1.15628906 -0.02513672 1.15628906 -0.02513672 2.3359375 -0.05078125 C5.36787427 0.43039643 6.57869354 0.99152154 8.625 3.3125 C9.06004713 6.14480684 9.23022354 8.48771986 9.1875 11.3125 C9.21134766 12.03695313 9.23519531 12.76140625 9.25976562 13.5078125 C9.25390625 15.625 9.25390625 15.625 8.625 19.3125 C5.52399748 22.06173086 2.95689529 22.69947635 -1.125 22.5625 C-2.29289063 22.53929687 -2.29289063 22.53929687 -3.484375 22.515625 C-5.375 22.3125 -5.375 22.3125 -6.375 21.3125 C-6.62466567 18.1742655 -6.56021791 15.02200387 -6.5625 11.875 C-6.57474609 10.99005859 -6.58699219 10.10511719 -6.59960938 9.19335938 C-6.60154297 8.34708984 -6.60347656 7.50082031 -6.60546875 6.62890625 C-6.60957764 5.84974854 -6.61368652 5.07059082 -6.61791992 4.26782227 C-6.1063312 0.14991867 -3.5537697 0.01770982 0 0 Z M-1.375 5.3125 C-2.33570434 8.19461302 -2.48081883 10.01100044 -2.4375 13 C-2.42847656 13.80824219 -2.41945312 14.61648438 -2.41015625 15.44921875 C-2.39855469 16.06410156 -2.38695312 16.67898438 -2.375 17.3125 C-0.71885343 17.69468767 0.94957024 18.02645102 2.625 18.3125 C3.93762571 17.22697634 3.93762571 17.22697634 3.72265625 14.58984375 C3.71105469 13.48769531 3.69945312 12.38554687 3.6875 11.25 C3.67847656 10.14527344 3.66945313 9.04054688 3.66015625 7.90234375 C3.64855469 7.04769531 3.63695312 6.19304687 3.625 5.3125 C1.975 5.3125 0.325 5.3125 -1.375 5.3125 Z " fill="#AFE4BB" transform="translate(252.375,375.6875)"/>
<path d="M0 0 C1.32 0.66 2.64 1.32 4 2 C4.02693575 4.12493141 4.04636628 6.24995912 4.0625 8.375 C4.07410156 9.55835938 4.08570313 10.74171875 4.09765625 11.9609375 C4 15 4 15 3 17 C4.65 17 6.3 17 8 17 C8 12.05 8 7.1 8 2 C9.32 1.34 10.64 0.68 12 0 C14.10391157 5.91725128 14.94131318 11.73779022 14 18 C11.85057207 20.88829378 10.5320682 21.7496231 6.9921875 22.328125 C4.02770828 22.48127153 1.71843626 22.53523145 -0.71948242 20.71899414 C-2.96112876 17.70976023 -2.38722651 14.03931788 -2.3125 10.4375 C-2.31572266 9.65697266 -2.31894531 8.87644531 -2.32226562 8.07226562 C-2.26716981 2.26716981 -2.26716981 2.26716981 0 0 Z " fill="#9ADBAB" transform="translate(211,376)"/>
<path d="M0 0 C2.76171875 0.55859375 2.76171875 0.55859375 6 2 C7.5982881 4.42591947 8.70439801 6.43131727 9.8125 9.0625 C10.11236816 9.73845215 10.41223633 10.4144043 10.72119141 11.11083984 C12.8589004 16.13487656 13.82307694 20.51538527 14 26 C14.30704854 27.67170873 14.62562851 29.3420691 15 31 C12 30 12 30 10.3125 27.0625 C9 24 9 24 9 22 C8.01 22 7.02 22 6 22 C2.13487719 14.62631553 0.17753026 8.34392221 0 0 Z " fill="#60E381" transform="translate(295,244)"/>
<path d="M0 0 C1 1 1 1 1.0625 3.5625 C1.041875 4.366875 1.02125 5.17125 1 6 C0.360625 6.28875 -0.27875 6.5775 -0.9375 6.875 C-3.15206079 7.82823451 -3.15206079 7.82823451 -4 10 C-4.66 10 -5.32 10 -6 10 C-5.67 11.32 -5.34 12.64 -5 14 C-2.36 14 0.28 14 3 14 C-3.36363636 19 -3.36363636 19 -8 19 C-8 19.66 -8 20.32 -8 21 C-9.32 21 -10.64 21 -12 21 C-11.505 16.545 -11.505 16.545 -11 12 C-10.34 12 -9.68 12 -9 12 C-8.87882813 11.14535156 -8.75765625 10.29070312 -8.6328125 9.41015625 C-8.46523437 8.30542969 -8.29765625 7.20070313 -8.125 6.0625 C-7.96257812 4.96035156 -7.80015625 3.85820312 -7.6328125 2.72265625 C-7.42398438 1.82417969 -7.21515625 0.92570312 -7 0 C-4.31633121 -1.3418344 -2.84719317 -0.73004953 0 0 Z " fill="#18EF4E" transform="translate(193,272)"/>
<path d="M0 0 C0.9796875 -0.00257813 1.959375 -0.00515625 2.96875 -0.0078125 C5.5 0.125 5.5 0.125 7.5 1.125 C7.125 3.0625 7.125 3.0625 6.5 5.125 C5.51 5.62 5.51 5.62 4.5 6.125 C3.84 5.795 3.18 5.465 2.5 5.125 C2.5 10.405 2.5 15.685 2.5 21.125 C1.18 21.455 -0.14 21.785 -1.5 22.125 C-2.5 21.125 -2.5 21.125 -2.52734375 18.2890625 C-2.46757833 15.93482482 -2.40509021 13.58065465 -2.33984375 11.2265625 C-2.24386727 7.95555672 -2.24386727 7.95555672 -4.5 5.125 C-5.49 4.795 -6.48 4.465 -7.5 4.125 C-7.5 3.135 -7.5 2.145 -7.5 1.125 C-4.89080172 -0.17959914 -2.91057385 -0.0076594 0 0 Z " fill="#A4D7B2" transform="translate(181.5,375.875)"/>
<path d="M0 0 C0.22397733 2.04000973 0.42848537 4.08216189 0.625 6.125 C0.74101562 7.26195312 0.85703125 8.39890625 0.9765625 9.5703125 C1.00112837 13.16511799 0.32167811 15.680671 -1 19 C-3.21460369 17.17054478 -3.94372483 16.32961168 -4.4375 13.4375 C-4.7159375 12.2309375 -4.7159375 12.2309375 -5 11 C-6.32467746 10.3162955 -7.65863633 9.65035814 -9 9 C-10.375 6.625 -10.375 6.625 -11 4 C-10.25 1.75 -10.25 1.75 -9 0 C-5.93109813 -1.53445094 -3.29905734 -0.54984289 0 0 Z " fill="#5DDD7E" transform="translate(288,213)"/>
<path d="M0 0 C1.32 0.33 2.64 0.66 4 1 C4.66 3.97 5.32 6.94 6 10 C7.98 10 9.96 10 12 10 C13.32789969 12.1871289 14.04752686 13.47720456 13.8125 16.0625 C12.8019291 18.47232291 12.23298671 19.58577508 10 21 C7.65913884 20.72445587 5.32378198 20.3944526 3 20 C2.86722656 18.97519531 2.73445313 17.95039063 2.59765625 16.89453125 C2.41935912 15.5338426 2.24096877 14.17316615 2.0625 12.8125 C1.97548828 12.13896484 1.88847656 11.46542969 1.79882812 10.77148438 C1.32174523 7.14918834 0.76987965 3.57196415 0 0 Z " fill="#27E654" transform="translate(259,166)"/>
<path d="M0 0 C0.66 0 1.32 0 2 0 C2 1.32 2 2.64 2 4 C4.64 4.33 7.28 4.66 10 5 C9.67 5.99 9.34 6.98 9 8 C6.69 8.33 4.38 8.66 2 9 C3.66954819 12.22404978 3.66954819 12.22404978 6.625 12.6875 C7.40875 12.790625 8.1925 12.89375 9 13 C9.33 11.35 9.66 9.7 10 8 C10.33 8 10.66 8 11 8 C11 10.64 11 13.28 11 16 C2.96498906 17.61050328 2.96498906 17.61050328 -1.0625 15.0625 C-1.701875 14.381875 -2.34125 13.70125 -3 13 C-2.69240822 11.02006459 -2.3787932 9.04106401 -2.0625 7.0625 C-1.88847656 5.96035156 -1.71445313 4.85820312 -1.53515625 3.72265625 C-1 1 -1 1 0 0 Z " fill="#A1DCB0" transform="translate(141,381)"/>
<path d="M0 0 C1.22589844 0.15275391 1.22589844 0.15275391 2.4765625 0.30859375 C3.41628906 0.43427734 3.41628906 0.43427734 4.375 0.5625 C5.035 2.2125 5.695 3.8625 6.375 5.5625 C5.055 5.2325 3.735 4.9025 2.375 4.5625 C2.375 8.8525 2.375 13.1425 2.375 17.5625 C1.715 17.2325 1.055 16.9025 0.375 16.5625 C0.23214286 7.99107143 0.23214286 7.99107143 1.375 4.5625 C-0.275 4.5625 -1.925 4.5625 -3.625 4.5625 C-3.625 8.8525 -3.625 13.1425 -3.625 17.5625 C-7.14216303 14.04533697 -7.17176163 12.36682667 -7.625 7.5625 C-7.955 9.8725 -8.285 12.1825 -8.625 14.5625 C-8.955 14.5625 -9.285 14.5625 -9.625 14.5625 C-9.70614106 12.79242286 -9.76425505 11.02127902 -9.8125 9.25 C-9.84730469 8.26386719 -9.88210938 7.27773438 -9.91796875 6.26171875 C-9.625 3.5625 -9.625 3.5625 -8.23828125 1.76953125 C-5.22733112 -0.48321352 -3.66618798 -0.47136703 0 0 Z " fill="#99DEAC" transform="translate(318.625,376.4375)"/>
<path d="M0 0 C0 0.66 0 1.32 0 2 C0.66 2 1.32 2 2 2 C2 2.66 2 3.32 2 4 C1.47792969 4.17015625 0.95585937 4.3403125 0.41796875 4.515625 C-3.99770844 5.96947318 -8.34858772 7.51731596 -12.6875 9.1875 C-16.60727297 10.63539367 -19.76924474 11.45737895 -24 11 C-23.525625 10.566875 -23.05125 10.13375 -22.5625 9.6875 C-20.76313043 7.97690387 -20.76313043 7.97690387 -20 5 C-13.88156076 1.74551105 -6.94181255 0 0 0 Z " fill="#47E372" transform="translate(238,266)"/>
<path d="M0 0 C0.33 0 0.66 0 1 0 C0.88512252 1.58409994 0.75765492 3.16728963 0.625 4.75 C0.55539063 5.63171875 0.48578125 6.5134375 0.4140625 7.421875 C0.00149945 9.99066382 -0.71160957 11.75841015 -2 14 C-1.54625 13.505 -1.0925 13.01 -0.625 12.5 C1 11 1 11 3 11 C1.1668733 16.99932374 -1.07321751 22.44920563 -4 28 C-4.33 28 -4.66 28 -5 28 C-5.125 25.125 -5.125 25.125 -5 22 C-4.34 21.34 -3.68 20.68 -3 20 C-2.35232207 17.42938689 -2.35232207 17.42938689 -2 15 C-2.99 15 -3.98 15 -5 15 C-5.103125 15.886875 -5.20625 16.77375 -5.3125 17.6875 C-6.01715907 21.0826755 -6.9554566 23.21942098 -9 26 C-9.66 26 -10.32 26 -11 26 C-8.34810503 16.88411104 -4.1194169 8.5225941 0 0 Z " fill="#60DE82" transform="translate(241,154)"/>
<path d="M0 0 C6.27 0 12.54 0 19 0 C19 1.65 19 3.3 19 5 C18.01 5 17.02 5 16 5 C16 4.34 16 3.68 16 3 C16.66 3 17.32 3 18 3 C18 2.34 18 1.68 18 1 C17.01 1.33 16.02 1.66 15 2 C12.93854893 2.068991 10.87498599 2.08467727 8.8125 2.0625 C7.18248047 2.04896484 7.18248047 2.04896484 5.51953125 2.03515625 C4.68808594 2.02355469 3.85664063 2.01195312 3 2 C3.350625 2.928125 3.70125 3.85625 4.0625 4.8125 C5 8 5 8 4 11 C3.34 10.67 2.68 10.34 2 10 C1.67 10.33 1.34 10.66 1 11 C0.01 11.495 0.01 11.495 -1 12 C-0.67 10.35 -0.34 8.7 0 7 C-0.99 7.495 -0.99 7.495 -2 8 C-3.82866539 8.22858317 -5.66340286 8.41025576 -7.5 8.5625 C-8.96953125 8.68818359 -8.96953125 8.68818359 -10.46875 8.81640625 C-11.97644536 8.9257607 -13.48834406 9 -15 9 C-15 9.66 -15 10.32 -15 11 C-17.31 11 -19.62 11 -22 11 C-22 10.34 -22 9.68 -22 9 C-20.36368108 7.95107762 -18.69514137 6.95093297 -17 6 C-16.67 5.67 -16.34 5.34 -16 5 C-13.13732433 4.92674832 -10.299281 4.90761795 -7.4375 4.9375 C-6.63119141 4.94201172 -5.82488281 4.94652344 -4.99414062 4.95117188 C-2.99606244 4.96299482 -0.99802217 4.98093086 1 5 C0.67 3.35 0.34 1.7 0 0 Z M-10 6 C-10 6.33 -10 6.66 -10 7 C-7.36 7 -4.72 7 -2 7 C-2 6.67 -2 6.34 -2 6 C-4.64 6 -7.28 6 -10 6 Z " fill="#E4E4E4" transform="translate(290,332)"/>
<path d="M0 0 C18.44805839 -1.99756046 18.44805839 -1.99756046 23.09033203 1.63623047 C26.88383276 6.04489347 30.243014 11.42122657 32 17 C31.67 17.66 31.34 18.32 31 19 C29 17 27 15 25 13 C25.33 12.34 25.66 11.68 26 11 C25.34 11 24.68 11 24 11 C23.938125 10.443125 23.87625 9.88625 23.8125 9.3125 C22.59103892 5.83603384 21.31057069 3.62295555 18 2 C13.29666932 1.46107669 8.70183378 1.43387299 4 2 C1.05807216 4.94192784 1.64462603 8.12190973 1.5859375 12.0703125 C1.56657135 12.86654022 1.5472052 13.66276794 1.5272522 14.48312378 C1.46739526 17.03030634 1.42104721 19.57753395 1.375 22.125 C1.33682579 23.8502803 1.29777439 25.57554143 1.2578125 27.30078125 C1.16168891 31.53369876 1.07768092 35.76670549 1 40 C0.67 40 0.34 40 0 40 C0 26.8 0 13.6 0 0 Z " fill="#E4E4E4" transform="translate(159,312)"/>
<path d="M0 0 C0.66 0 1.32 0 2 0 C2 1.32 2 2.64 2 4 C2.99 4.33 3.98 4.66 5 5 C5.33 6.98 5.66 8.96 6 11 C5.401875 10.67 4.80375 10.34 4.1875 10 C1.94613529 8.79212012 1.94613529 8.79212012 -1 9 C-1.33 9.66 -1.66 10.32 -2 11 C-2.66 11 -3.32 11 -4 11 C-4.33 13.97 -4.66 16.94 -5 20 C-5.66 20 -6.32 20 -7 20 C-7.33 20.99 -7.66 21.98 -8 23 C-8.66 23 -9.32 23 -10 23 C-8.1531127 14.15851825 -6.33759385 6.78535864 0 0 Z " fill="#11F34A" transform="translate(249,145)"/>
<path d="M0 0 C1.98 0.495 1.98 0.495 4 1 C4 7.6 4 14.2 4 21 C2.68 21.33 1.36 21.66 0 22 C-1.55073147 20.44926853 -1.12969128 18.96937747 -1.1328125 16.81640625 C-1.13410156 15.97142578 -1.13539063 15.12644531 -1.13671875 14.25585938 C-1.13091797 12.92264648 -1.13091797 12.92264648 -1.125 11.5625 C-1.12886719 10.67755859 -1.13273437 9.79261719 -1.13671875 8.88085938 C-1.13478516 7.61145508 -1.13478516 7.61145508 -1.1328125 6.31640625 C-1.13168457 5.53724854 -1.13055664 4.75809082 -1.12939453 3.95532227 C-1 2 -1 2 0 0 Z " fill="#C9EAD1" transform="translate(284,376)"/>
<path d="M0 0 C-21.19461677 10.53856675 -21.19461677 10.53856675 -33 10 C-32.0625 7.1875 -32.0625 7.1875 -30 4 C-27.09453062 2.59362918 -24.13359225 1.74890884 -21 1 C-22 4 -22 4 -24 5 C-17.2300331 4.66705081 -12.48901673 3.09960181 -6.48046875 -0.0390625 C-3.67833915 -1.12461192 -2.78105148 -0.84421491 0 0 Z " fill="#25E657" transform="translate(239,271)"/>
<path d="M0 0 C0 1.32 0 2.64 0 4 C0.99 3.835 1.98 3.67 3 3.5 C7.02732942 2.91525483 10.93474623 2.92867976 15 3 C15.66 5.31 16.32 7.62 17 10 C18.98 10 20.96 10 23 10 C22.67 10.66 22.34 11.32 22 12 C17.95938883 11.7180969 16.38731543 11.39699832 13.5 8.4375 C11.22117948 5.74017778 11.22117948 5.74017778 8.0625 5.5625 C4.84876991 6.0216043 2.02996369 6.84572812 -1 8 C-1 7.34 -1 6.68 -1 6 C-1.66 6 -2.32 6 -3 6 C-3 5.34 -3 4.68 -3 4 C-3.9075 4.350625 -4.815 4.70125 -5.75 5.0625 C-9.00591313 6.00170571 -9.92749994 5.95514676 -13 5 C-11.21046815 4.16209211 -9.41830305 3.32980604 -7.625 2.5 C-6.62726563 2.0359375 -5.62953125 1.571875 -4.6015625 1.09375 C-2 0 -2 0 0 0 Z " fill="#71E08A" transform="translate(241,262)"/>
<path d="M0 0 C0.99 0.33 1.98 0.66 3 1 C3 5.62 3 10.24 3 15 C-1.52881469 17.26440734 -3.18528124 17.090125 -8 16 C-9.44207941 13.11584117 -9.09394887 10.58278472 -9.0625 7.375 C-9.05347656 6.18648438 -9.04445312 4.99796875 -9.03515625 3.7734375 C-9.02355469 2.85820312 -9.01195312 1.94296875 -9 1 C-8.67 1 -8.34 1 -8 1 C-7.34 4.63 -6.68 8.26 -6 12 C-3.03 12.495 -3.03 12.495 0 13 C0 8.71 0 4.42 0 0 Z " fill="#64CA81" transform="translate(257,381)"/>
<path d="M0 0 C0.99 0 1.98 0 3 0 C3.28875 0.9075 3.5775 1.815 3.875 2.75 C4.85360549 5.8668097 4.85360549 5.8668097 6.125 8.0625 C7.2140074 10.47387354 7.14531509 12.38432839 7 15 C1.34388537 15.56561146 -2.22642128 13.71391278 -7 11 C-7 10.01 -7 9.02 -7 8 C-4.36 8.33 -1.72 8.66 1 9 C0.67 6.03 0.34 3.06 0 0 Z " fill="#1CEB51" transform="translate(310,276)"/>
<path d="M0 0 C0.66 0.33 1.32 0.66 2 1 C1.01 2.485 1.01 2.485 0 4 C2.97 4 5.94 4 9 4 C5.83936913 6.60332156 2.6568348 8.14038576 -1.125 9.6875 C-2.70667969 10.34298828 -2.70667969 10.34298828 -4.3203125 11.01171875 C-7 12 -7 12 -9 12 C-9 11.34 -9 10.68 -9 10 C-6 8 -6 8 -2 8 C-2 7.01 -2 6.02 -2 5 C-7.28 6.32 -12.56 7.64 -18 9 C-17.34 7.68 -16.68 6.36 -16 5 C-15.01 5 -14.02 5 -13 5 C-9.60662773 3.75072027 -6.27755514 2.37170328 -2.93359375 0.99609375 C-1.96550781 0.66738281 -0.99742187 0.33867187 0 0 Z " fill="#5DDC80" transform="translate(207,276)"/>
<path d="M0 0 C5.61 0 11.22 0 17 0 C17.22184567 4.06217418 17.42798717 8.12411032 17.625 12.1875 C17.68945312 13.33798828 17.75390625 14.48847656 17.8203125 15.67382812 C17.89765625 17.34155273 17.89765625 17.34155273 17.9765625 19.04296875 C18.02893066 20.06414795 18.08129883 21.08532715 18.13525391 22.13745117 C17.99179477 25.17365764 17.28684147 27.26601086 16 30 C15.34 29.34 14.68 28.68 14 28 C14.20099031 26.35611084 14.415501 24.71259224 14.70263672 23.08154297 C15.24866093 19.25937351 15.1028626 15.41557589 15.0625 11.5625 C15.05798828 10.73556641 15.05347656 9.90863281 15.04882812 9.05664062 C15.03715811 7.03772854 15.01922718 5.01885426 15 3 C12.25316561 2.26379889 9.57379563 1.76694282 6.75 1.4375 C5.5125 1.293125 4.275 1.14875 3 1 C2.95101563 2.27617187 2.90203125 3.55234375 2.8515625 4.8671875 C2.77653809 6.53648072 2.70099012 8.20575046 2.625 9.875 C2.5940625 10.71675781 2.563125 11.55851562 2.53125 12.42578125 C2.49257813 13.23144531 2.45390625 14.03710938 2.4140625 14.8671875 C2.36693115 15.98262939 2.36693115 15.98262939 2.31884766 17.12060547 C2 19 2 19 0 21 C0 14.07 0 7.14 0 0 Z " fill="#EAEAEA" transform="translate(326,312)"/>
<path d="M0 0 C0.33 0 0.66 0 1 0 C1.48092039 3.20613591 1.48973115 5.28423909 -0.37109375 8.00390625 C-0.92925781 8.68324219 -1.48742187 9.36257812 -2.0625 10.0625 C-4.66679039 13.08154842 -4.66679039 13.08154842 -4.875 17 C-4.58625 17.66 -4.2975 18.32 -4 19 C-3.01 19 -2.02 19 -1 19 C-0.71125 18.21625 -0.4225 17.4325 -0.125 16.625 C1 14 1 14 3 12 C3.3125 14.75 3.3125 14.75 3 18 C0.875 20.5 0.875 20.5 -2 22 C-5.1875 21.5625 -5.1875 21.5625 -8 20 C-9.5 17.625 -9.5 17.625 -10 15 C-9.375 12.75 -9.375 12.75 -8 11 C-7.34644531 10.89171875 -6.69289062 10.7834375 -6.01953125 10.671875 C-5.35308594 10.45015625 -4.68664062 10.2284375 -4 10 C-2.89794531 7.95168861 -2.89794531 7.95168861 -2.3125 5.5 C-1.05298013 1.05298013 -1.05298013 1.05298013 0 0 Z " fill="#66D880" transform="translate(213,215)"/>
<path d="M0 0 C3.47914941 -0.02887814 6.95826831 -0.04675687 10.4375 -0.0625 C11.92733398 -0.07506836 11.92733398 -0.07506836 13.44726562 -0.08789062 C14.39150391 -0.09111328 15.33574219 -0.09433594 16.30859375 -0.09765625 C17.62041626 -0.10551147 17.62041626 -0.10551147 18.95874023 -0.11352539 C21 0 21 0 22 1 C22.08858646 3.73894085 22.11523479 6.4525327 22.09765625 9.19140625 C22.0962413 10.01124496 22.09482635 10.83108368 22.09336853 11.67576599 C22.08775289 14.30471382 22.07519779 16.93357773 22.0625 19.5625 C22.05748701 21.34049357 22.05292376 23.11848846 22.04882812 24.89648438 C22.03777839 29.26435545 22.02050331 33.63216348 22 38 C21.67 38 21.34 38 21 38 C20.40092533 30.98226816 19.87191745 24.04454018 20 17 C20 15.68 20 14.36 20 13 C20.01160156 12.25621094 20.02320313 11.51242187 20.03515625 10.74609375 C20.04417969 9.98425781 20.05320313 9.22242188 20.0625 8.4375 C20.07410156 7.67308594 20.08570313 6.90867187 20.09765625 6.12109375 C20.08767007 3.80924107 20.08767007 3.80924107 19 1 C13.39 1 7.78 1 2 1 C1.67 1.66 1.34 2.32 1 3 C0.67 2.01 0.34 1.02 0 0 Z " fill="#F4F4F4" transform="translate(214,312)"/>
<path d="M0 0 C1.62463842 -0.05395478 3.24978541 -0.09277195 4.875 -0.125 C5.77992188 -0.14820313 6.68484375 -0.17140625 7.6171875 -0.1953125 C10 0 10 0 12 2 C12.14507695 4.74485593 12.18652423 7.38480543 12.125 10.125 C12.11597656 10.87910156 12.10695313 11.63320313 12.09765625 12.41015625 C12.0740687 14.27357254 12.03819719 16.13682593 12 18 C11.67 18 11.34 18 11 18 C10.95101563 17.07316406 10.90203125 16.14632813 10.8515625 15.19140625 C10.73941406 13.39509766 10.73941406 13.39509766 10.625 11.5625 C10.55539062 10.36753906 10.48578125 9.17257812 10.4140625 7.94140625 C10.27742188 6.97074219 10.14078125 6.00007813 10 5 C9.34 4.67 8.68 4.34 8 4 C8 8.29 8 12.58 8 17 C7.34 16.67 6.68 16.34 6 16 C6.33 11.71 6.66 7.42 7 3 C4.36 3 1.72 3 -1 3 C-0.67 2.01 -0.34 1.02 0 0 Z " fill="#8AD69D" transform="translate(249,377)"/>
<path d="M0 0 C2.64 0 5.28 0 8 0 C8.33 0.66 8.66 1.32 9 2 C7.02 2 5.04 2 3 2 C3 2.99 3 3.98 3 5 C3.556875 5.12375 4.11375 5.2475 4.6875 5.375 C7.22114364 6.05976855 9.57921032 6.99133763 12 8 C8.00439392 10.83022097 4.57262677 9.76210446 0 9 C-1.125 6.75 -1.125 6.75 -2 4 C-1.125 1.6875 -1.125 1.6875 0 0 Z " fill="#96D7A5" transform="translate(348,388)"/>
<path d="M0 0 C0.99 0 1.98 0 3 0 C3.125 2.375 3.125 2.375 3 5 C2.34 5.66 1.68 6.32 1 7 C0.814375 8.670625 0.814375 8.670625 0.625 10.375 C-0.07310313 14.42399813 -0.89685748 15.46106521 -4 18 C-4.66 18.66 -5.32 19.32 -6 20 C-7.1832439 16.45026831 -6.90010116 14.60040463 -6 11 C-5.52433594 10.52949219 -5.04867187 10.05898437 -4.55859375 9.57421875 C-2.7488728 7.74635523 -2.14485551 6.23029457 -1.3125 3.8125 C-1.06113281 3.09707031 -0.80976563 2.38164062 -0.55078125 1.64453125 C-0.36902344 1.10183594 -0.18726563 0.55914062 0 0 Z " fill="#1CEB53" transform="translate(236,169)"/>
<path d="M0 0 C3.5625 0.3125 3.5625 0.3125 5.5 1.4375 C7.04388276 4.16199899 6.8892107 6.24141945 6.5625 9.3125 C5.9025 9.9725 5.2425 10.6325 4.5625 11.3125 C1.83380593 11.27962417 -0.7341618 10.74852229 -3.4375 10.3125 C-3.81968767 8.65635343 -4.15145102 6.98792976 -4.4375 5.3125 C-3.4375 4.3125 -3.4375 4.3125 -1.58984375 4.21484375 C0.4609375 4.24739583 2.51171875 4.27994792 4.5625 4.3125 C4.5625 3.6525 4.5625 2.9925 4.5625 2.3125 C1.2625 2.3125 -2.0375 2.3125 -5.4375 2.3125 C-3.4375 0.3125 -3.4375 0.3125 0 0 Z M-3.4375 5.3125 C-3.1075 6.6325 -2.7775 7.9525 -2.4375 9.3125 C-0.7875 8.9825 0.8625 8.6525 2.5625 8.3125 C2.2325 7.3225 1.9025 6.3325 1.5625 5.3125 C-0.0875 5.3125 -1.7375 5.3125 -3.4375 5.3125 Z " fill="#9CD7AF" transform="translate(354.4375,375.6875)"/>
<path d="M0 0 C1.8125 1.125 1.8125 1.125 3 3 C3.42478586 7.07794425 3.31282587 8.53076119 1 12 C0.01 11.67 -0.98 11.34 -2 11 C-2 10.34 -2 9.68 -2 9 C-1.01 9 -0.02 9 1 9 C0.34 7.02 -0.32 5.04 -1 3 C-2.98 3 -4.96 3 -7 3 C-6.95875 4.2375 -6.9175 5.475 -6.875 6.75 C-6.86341709 10.01637962 -7.1431298 12.2146947 -9 15 C-9.66 15 -10.32 15 -11 15 C-10.57739475 12.87198777 -10.13642627 10.74761548 -9.6875 8.625 C-9.44386719 7.44164062 -9.20023438 6.25828125 -8.94921875 5.0390625 C-7.44035537 0.20821596 -4.72859975 -0.59107497 0 0 Z " fill="#8DDCA2" transform="translate(193,269)"/>
<path d="M0 0 C0.33 0.66 0.66 1.32 1 2 C1.66 2 2.32 2 3 2 C3.33 1.34 3.66 0.68 4 0 C4.33 0.66 4.66 1.32 5 2 C4.67 2.66 4.34 3.32 4 4 C5.65 4 7.3 4 9 4 C9 4.66 9 5.32 9 6 C11.97 6 14.94 6 18 6 C18.66 4.35 19.32 2.7 20 1 C22.1385485 3.1385485 22.42655063 4.13275314 23 7 C19.91684615 7.08733513 16.83401173 7.14050127 13.75 7.1875 C12.44095703 7.22520508 12.44095703 7.22520508 11.10546875 7.26367188 C4.57391162 7.3384607 4.57391162 7.3384607 1.5625 5.5625 C1.046875 5.046875 0.53125 4.53125 0 4 C-1.64797236 3.28837557 -3.31165408 2.60968047 -5 2 C-4.360625 1.855625 -3.72125 1.71125 -3.0625 1.5625 C-1.02454854 1.18992819 -1.02454854 1.18992819 0 0 Z " fill="#D7D7D7" transform="translate(270,320)"/>
<path d="M0 0 C2 3 2 3 2.4375 6.125 C3.09544252 10.65749292 4.45192388 14.70627944 6 19 C3 18 3 18 1 16 C1.33 19.3 1.66 22.6 2 26 C-1.74193548 21.01075269 -1.74193548 21.01075269 -2 18 C-1.50395093 16.37957304 -1.00473968 14.75995486 -0.48046875 13.1484375 C0.48263067 8.84189536 0.14281689 4.38765228 0 0 Z " fill="#7AE194" transform="translate(288,214)"/>
<path d="M0 0 C2.31 0 4.62 0 7 0 C7 0.66 7 1.32 7 2 C5.68 2 4.36 2 3 2 C3 6.95 3 11.9 3 17 C2.01 17.33 1.02 17.66 0 18 C0 12.06 0 6.12 0 0 Z " fill="#55C976" transform="translate(180,378)"/>
<path d="M0 0 C2.31 0 4.62 0 7 0 C7.66 2.31 8.32 4.62 9 7 C6.03 7 3.06 7 0 7 C-1.125 2.25 -1.125 2.25 0 0 Z " fill="#0FF345" transform="translate(292,278)"/>
<path d="M0 0 C0.99 0.495 0.99 0.495 2 1 C2 1.66 2 2.32 2 3 C3.65 3 5.3 3 7 3 C7 5.64 7 8.28 7 11 C5.1875 11.625 5.1875 11.625 3 12 C2.01 11.34 1.02 10.68 0 10 C-0.29296875 7.6171875 -0.29296875 7.6171875 -0.1875 4.875 C-0.16042969 3.96492187 -0.13335937 3.05484375 -0.10546875 2.1171875 C-0.07066406 1.41851562 -0.03585937 0.71984375 0 0 Z " fill="#23EB53" transform="translate(263,173)"/>
<path d="M0 0 C1.32 1.32 2.64 2.64 4 4 C3.34 4 2.68 4 2 4 C2 4.66 2 5.32 2 6 C2.99 6.33 3.98 6.66 5 7 C5 7.66 5 8.32 5 9 C7.67642489 11.18490007 7.67642489 11.18490007 10 11 C11 12 12 13 13 14 C14.64605826 15.03357147 16.30963442 16.04060332 18 17 C15.71251282 17.77947781 14.38673518 18.1114843 12.03515625 17.43359375 C7.11367023 14.94848695 3.97993018 12.69564756 1 8 C0.33893539 5.26694182 0.14637655 2.82994654 0 0 Z " fill="#EAEAEA" transform="translate(237,334)"/>
<path d="M0 0 C0.99 0.33 1.98 0.66 3 1 C3 6.28 3 11.56 3 17 C2.34 16.34 1.68 15.68 1 15 C0.34 15.99 -0.32 16.98 -1 18 C-1.02684312 15.18743719 -1.04676188 12.37512759 -1.0625 9.5625 C-1.07087891 8.76005859 -1.07925781 7.95761719 -1.08789062 7.13085938 C-1.0965143 5.08704779 -1.0522815 3.04316098 -1 1 C-0.67 0.67 -0.34 0.34 0 0 Z " fill="#55B66B" transform="translate(221,376)"/>
<path d="M0 0 C0.66 0 1.32 0 2 0 C5.36561591 6.0605925 7.61330541 11.03949747 8 18 C4.05272412 18.17942163 1.4019487 18.09350689 -2 16 C-1.67 15.01 -1.34 14.02 -1 13 C2.96 14.98 2.96 14.98 7 17 C6.401875 15.865625 5.80375 14.73125 5.1875 13.5625 C2.98322311 9.17747943 1.43186235 4.68609497 0 0 Z " fill="#84DE99" transform="translate(302,266)"/>
<path d="M0 0 C0.99 0 1.98 0 3 0 C3.02690844 2.62506802 3.04679404 5.24986173 3.0625 7.875 C3.07087891 8.62136719 3.07925781 9.36773437 3.08789062 10.13671875 C3.11328125 15.7734375 3.11328125 15.7734375 2 18 C1.34 18 0.68 18 0 18 C0 12.06 0 6.12 0 0 Z " fill="#59C775" transform="translate(284,378)"/>
<path d="M0 0 C0.66 0.33 1.32 0.66 2 1 C2 1.66 2 2.32 2 3 C2.99 3.33 3.98 3.66 5 4 C5.33 7.3 5.66 10.6 6 14 C3.625 13.125 3.625 13.125 1 11 C-0.1127668 7.7258977 -0.74046344 4.44812856 -1 1 C-0.67 0.67 -0.34 0.34 0 0 Z " fill="#25E656" transform="translate(289,229)"/>
<path d="M0 0 C1.09658936 3.28976808 0.79953138 4.71303767 0 8 C1.32 8 2.64 8 4 8 C4 7.34 4 6.68 4 6 C8.62197306 3.78145293 11.76824163 2.61718841 17 3 C12.98030905 7.01969095 6.95260044 8.8653379 1.375 9.25 C0.59125 9.1675 -0.1925 9.085 -1 9 C-1.80967438 6.08517222 -2.21845993 4.53886783 -1.0625 1.6875 C-0.711875 1.130625 -0.36125 0.57375 0 0 Z " fill="#81DC99" transform="translate(181,285)"/>
<path d="M0 0 C0.66 0.99 1.32 1.98 2 3 C2.66 2.34 3.32 1.68 4 1 C4.05429959 2.74965358 4.09292823 4.49979787 4.125 6.25 C4.14820313 7.22453125 4.17140625 8.1990625 4.1953125 9.203125 C3.99862781 12.0196498 3.44568916 13.60949036 2 16 C0.48046875 14.91796875 0.48046875 14.91796875 -1 13 C-1.07421875 9.86328125 -1.07421875 9.86328125 -0.6875 6.3125 C-0.56761719 5.13300781 -0.44773437 3.95351563 -0.32421875 2.73828125 C-0.16373047 1.38283203 -0.16373047 1.38283203 0 0 Z " fill="#5ABE74" transform="translate(310,381)"/>
<path d="M0 0 C0.66 0 1.32 0 2 0 C3.125 2.3125 3.125 2.3125 4 5 C3.01 6.485 3.01 6.485 2 8 C1.67 7.34 1.34 6.68 1 6 C0.67 13.26 0.34 20.52 0 28 C-0.33 28 -0.66 28 -1 28 C-1.02886338 23.52084672 -1.04675187 19.04171709 -1.0625 14.5625 C-1.07087891 13.28310547 -1.07925781 12.00371094 -1.08789062 10.68554688 C-1.09111328 9.47060547 -1.09433594 8.25566406 -1.09765625 7.00390625 C-1.10289307 5.87799072 -1.10812988 4.7520752 -1.11352539 3.59204102 C-1 1 -1 1 0 0 Z " fill="#F0F0F0" transform="translate(176,324)"/>
<path d="M0 0 C1.32 0.66 2.64 1.32 4 2 C4 3.65 4 5.3 4 7 C-1.39841689 7.49076517 -1.39841689 7.49076517 -4.375 5.0625 C-6 3 -6 3 -6 2 C-4.02 2 -2.04 2 0 2 C0 1.34 0 0.68 0 0 Z " fill="#10F34B" transform="translate(313,284)"/>
<path d="M0 0 C2.31 0.33 4.62 0.66 7 1 C7 2.98 7 4.96 7 7 C5.02 7 3.04 7 1 7 C0.67 4.69 0.34 2.38 0 0 Z " fill="#17EE4E" transform="translate(257,265)"/>
<path d="M0 0 C0.66 0 1.32 0 2 0 C1.39254603 4.85963179 -0.72758967 8.7405518 -3 13 C-3.66 13 -4.32 13 -5 13 C-5 14.32 -5 15.64 -5 17 C-5.66 17 -6.32 17 -7 17 C-6.46105575 12.40191871 -5.23428472 9.13215631 -2.9375 5.125 C-2.38964844 4.15820312 -1.84179688 3.19140625 -1.27734375 2.1953125 C-0.85582031 1.47085938 -0.43429688 0.74640625 0 0 Z " fill="#15F04F" transform="translate(228,190)"/>
<path d="M0 0 C0.66 0.33 1.32 0.66 2 1 C1.67 1.66 1.34 2.32 1 3 C-1.31 2.67 -3.62 2.34 -6 2 C-6.04254356 3.99954746 -6.04080783 6.00041636 -6 8 C-4.03177114 9.96822886 -0.65191291 9.66248381 2 10 C0.375 11.125 0.375 11.125 -2 12 C-5.25 11.125 -5.25 11.125 -8 10 C-9.32850242 3.59903382 -9.32850242 3.59903382 -7.9375 1.0625 C-5.199384 -0.43904748 -3.07155269 -0.26140874 0 0 Z " fill="#8FDAA3" transform="translate(298,276)"/>
<path d="M0 0 C-3.26669046 1.5091441 -6.53898816 3.00571701 -9.8125 4.5 C-10.74126953 4.92925781 -11.67003906 5.35851562 -12.62695312 5.80078125 C-13.9659668 6.40986328 -13.9659668 6.40986328 -15.33203125 7.03125 C-16.56530151 7.59682617 -16.56530151 7.59682617 -17.82348633 8.17382812 C-20 9 -20 9 -23 9 C-23 8.34 -23 7.68 -23 7 C-21.68 7 -20.36 7 -19 7 C-19 6.34 -19 5.68 -19 5 C-17.87851563 4.60167969 -17.87851563 4.60167969 -16.734375 4.1953125 C-15.74953125 3.84210938 -14.7646875 3.48890625 -13.75 3.125 C-12.77546875 2.77695312 -11.8009375 2.42890625 -10.796875 2.0703125 C-8.05684445 1.10164682 -8.05684445 1.10164682 -5.890625 -0.1953125 C-3.51065705 -1.20827407 -2.42485312 -0.70908393 0 0 Z " fill="#88DC9E" transform="translate(239,271)"/>
<path d="M0 0 C1.2065625 0.0309375 1.2065625 0.0309375 2.4375 0.0625 C3.79189668 2.77129335 3.50251451 5.07183268 3.4375 8.0625 C1.7875 7.7325 0.1375 7.4025 -1.5625 7.0625 C-2.2225 5.0825 -2.8825 3.1025 -3.5625 1.0625 C-2.5625 0.0625 -2.5625 0.0625 0 0 Z " fill="#0EF448" transform="translate(283.5625,214.9375)"/>
<path d="M0 0 C0.33 0.66 0.66 1.32 1 2 C5.455 1.505 5.455 1.505 10 1 C10.9681648 4.8726592 11.07622858 8.03611362 11 12 C10.01 12.495 10.01 12.495 9 13 C8.67 11.02 8.34 9.04 8 7 C7.67 8.32 7.34 9.64 7 11 C6.34 10.67 5.68 10.34 5 10 C5.99 7.69 6.98 5.38 8 3 C5.03 3 2.06 3 -1 3 C-0.67 2.01 -0.34 1.02 0 0 Z " fill="#ABE5BE" transform="translate(143,383)"/>
<path d="M0 0 C0.99 0.495 0.99 0.495 2 1 C2 1.66 2 2.32 2 3 C2.99 3 3.98 3 5 3 C5.66 6.96 6.32 10.92 7 15 C4 14 4 14 2.375 11.4375 C0.79253439 7.48133598 0.36464047 4.22982949 0 0 Z " fill="#1CEB53" transform="translate(303,260)"/>
<path d="M0 0 C0.99 0 1.98 0 3 0 C3.36923077 6.52307692 3.36923077 6.52307692 1.5 8.9375 C1.005 9.288125 0.51 9.63875 0 10 C-0.99 9.34 -1.98 8.68 -3 8 C-2.45276317 4.62537285 -1.9451 2.91765 0 0 Z " fill="#0DF547" transform="translate(210,225)"/>
<path d="M0 0 C0.07089551 2.4813428 0.05998426 4.72407239 -0.46875 7.15625 C-1.16199813 10.86716648 -1.35725702 14.54746892 -1.5625 18.3125 C-1.60568359 19.05306641 -1.64886719 19.79363281 -1.69335938 20.55664062 C-1.79870432 22.37091464 -1.89978316 24.1854355 -2 26 C-2.33 26 -2.66 26 -3 26 C-3.01981934 25.31373535 -3.03963867 24.6274707 -3.06005859 23.92041016 C-3.15510945 20.82154221 -3.26486847 17.72336706 -3.375 14.625 C-3.4059375 13.54476563 -3.436875 12.46453125 -3.46875 11.3515625 C-3.50742188 10.3203125 -3.54609375 9.2890625 -3.5859375 8.2265625 C-3.6173584 7.27346191 -3.6487793 6.32036133 -3.68115234 5.33837891 C-3.78555796 2.81104824 -3.78555796 2.81104824 -6 1 C-4 0 -4 0 0 0 Z " fill="#DEDEDE" transform="translate(221,326)"/>
<path d="M0 0 C1.875 0.3125 1.875 0.3125 4 1 C6.1519437 4.22791555 6.20086443 5.28400809 6 9 C5.54625 8.38125 5.0925 7.7625 4.625 7.125 C3.02891081 4.94080167 3.02891081 4.94080167 1 3 C-0.98 7.455 -0.98 7.455 -3 12 C-3.33 12 -3.66 12 -4 12 C-3.67 9.03 -3.34 6.06 -3 3 C-2.34 3 -1.68 3 -1 3 C-0.67 2.01 -0.34 1.02 0 0 Z " fill="#97E6A8" transform="translate(248,153)"/>
<path d="M0 0 C0.66 0 1.32 0 2 0 C2 1.32 2 2.64 2 4 C4.64 4.33 7.28 4.66 10 5 C9.67 5.99 9.34 6.98 9 8 C2.375 8.25 2.375 8.25 -1 6 C-1.25 3.4375 -1.25 3.4375 -1 1 C-0.67 0.67 -0.34 0.34 0 0 Z " fill="#62C87A" transform="translate(141,381)"/>
<path d="M0 0 C0.99 0.33 1.98 0.66 3 1 C2 3 2 3 0.125 3.875 C-2.36796335 5.19480413 -3.45147781 6.67721672 -5 9 C-4.01 9.66 -3.02 10.32 -2 11 C-2.99 11.66 -3.98 12.32 -5 13 C-6.01868662 13.98095748 -7.02351983 14.97702078 -8 16 C-7.83594462 9.28864336 -6.85033511 5.73203426 -2 1 C-1.34 0.67 -0.68 0.34 0 0 Z " fill="#EDEDED" transform="translate(245,315)"/>
<path d="M0 0 C0.98120464 3.05263664 0.98120464 4.94736336 0 8 C0.99 8.33 1.98 8.66 3 9 C3 9.66 3 10.32 3 11 C2.01 11 1.02 11 0 11 C0 11.66 0 12.32 0 13 C-1.32 13 -2.64 13 -4 13 C-3.67 10.03 -3.34 7.06 -3 4 C-2.34 4 -1.68 4 -1 4 C-0.67 2.68 -0.34 1.36 0 0 Z " fill="#22E758" transform="translate(185,280)"/>
<path d="M0 0 C-1.17578125 1.953125 -1.17578125 1.953125 -3 4 C-5.48046875 4.609375 -5.48046875 4.609375 -8.1875 4.75 C-9.08855469 4.80671875 -9.98960937 4.8634375 -10.91796875 4.921875 C-11.60503906 4.94765625 -12.29210937 4.9734375 -13 5 C-10.68536119 1.38916346 -9.63018624 0.15211392 -5.375 -0.875 C-2 -1 -2 -1 0 0 Z " fill="#1EE950" transform="translate(227,272)"/>
<path d="M0 0 C2.4375 0.625 2.4375 0.625 5 2 C6.47368421 7.05263158 6.47368421 7.05263158 5 10 C3.68 9.67 2.36 9.34 1 9 C0.67 6.03 0.34 3.06 0 0 Z " fill="#1FE954" transform="translate(295,244)"/>
<path d="M0 0 C1.22589844 0.15275391 1.22589844 0.15275391 2.4765625 0.30859375 C3.41628906 0.43427734 3.41628906 0.43427734 4.375 0.5625 C4.375 1.5525 4.375 2.5425 4.375 3.5625 C0.745 3.5625 -2.885 3.5625 -6.625 3.5625 C-6.625 2.5725 -6.625 1.5825 -6.625 0.5625 C-4.10446405 -0.69776798 -2.7707902 -0.35624445 0 0 Z " fill="#75D190" transform="translate(147.625,376.4375)"/>
<path d="M0 0 C1.60310441 0.35894425 3.2073559 0.71278992 4.8125 1.0625 C6.20844918 1.37448212 7.60432165 1.68680856 9 2 C9 2.33 9 2.66 9 3 C2.07 3 -4.86 3 -12 3 C-5.35714286 -1.42857143 -5.35714286 -1.42857143 0 0 Z " fill="#98E2AB" transform="translate(253,259)"/>
<path d="M0 0 C0.66 0 1.32 0 2 0 C0.1668733 5.99932374 -2.07321751 11.44920563 -5 17 C-5.33 17 -5.66 17 -6 17 C-6.30938864 12.46229996 -5.96407351 10.43832528 -3 7 C-2.67 6.01 -2.34 5.02 -2 4 C-1.34 4 -0.68 4 0 4 C0 2.68 0 1.36 0 0 Z " fill="#80DE98" transform="translate(242,165)"/>
<path d="M0 0 C0 0.66 0 1.32 0 2 C-3.47325181 3.1577506 -6.36067448 3.06866652 -10 3 C-10 1.68 -10 0.36 -10 -1 C-5.92224809 -1.9267618 -3.57818963 -2.33958553 0 0 Z " fill="#1EEA56" transform="translate(251,263)"/>
<path d="M0 0 C0.66 0 1.32 0 2 0 C5.17502733 4.57203935 6.14337497 8.25050215 6.0625 13.75 C6.05347656 14.54921875 6.04445313 15.3484375 6.03515625 16.171875 C6.01775391 17.07679688 6.01775391 17.07679688 6 18 C5.34 17.67 4.68 17.34 4 17 C3.76461112 15.11688898 3.53633149 13.2324997 3.3515625 11.34375 C2.76014631 7.40097537 1.37285655 3.73002534 0 0 Z " fill="#87DA9C" transform="translate(256,166)"/>
<path d="M0 0 C1.65 0 3.3 0 5 0 C4.34 0.66 3.68 1.32 3 2 C2.34 1.67 1.68 1.34 1 1 C1 6.28 1 11.56 1 17 C-0.32 17.33 -1.64 17.66 -3 18 C-4 17 -4 17 -4.0625 13.9375 C-4.041875 12.968125 -4.02125 11.99875 -4 11 C-3.67 11 -3.34 11 -3 11 C-3 12.65 -3 14.3 -3 16 C-2.34 15.67 -1.68 15.34 -1 15 C-0.68758629 12.45058627 -0.48696579 9.99638487 -0.375 7.4375 C-0.33632812 6.72658203 -0.29765625 6.01566406 -0.2578125 5.28320312 C-0.16328217 3.52257575 -0.08054183 1.76132272 0 0 Z " fill="#D2F3D7" transform="translate(183,380)"/>
<path d="M0 0 C1.5625 1.1875 1.5625 1.1875 3 3 C2.86136996 5.77260089 2.29925448 7.50124254 0.875 9.875 C-2.12710787 11.67626472 -4.70179208 10.68453372 -8 10 C-8 9.67 -8 9.34 -8 9 C-5.36 8.67 -2.72 8.34 0 8 C0 5.36 0 2.72 0 0 Z " fill="#82D898" transform="translate(270,176)"/>
<path d="M0 0 C0.66 0.33 1.32 0.66 2 1 C0.35433477 6.68502535 -2.29032784 11.76681636 -5 17 C-5.33 15.68 -5.66 14.36 -6 13 C-5.34 13 -4.68 13 -4 13 C-3.896875 11.96875 -3.79375 10.9375 -3.6875 9.875 C-3.00872203 6.04916055 -1.88841205 3.36629975 0 0 Z " fill="#87DD9E" transform="translate(230,191)"/>
<path d="M0 0 C0.33 0.66 0.66 1.32 1 2 C4.3 2 7.6 2 11 2 C6.04761905 5.71428571 6.04761905 5.71428571 3 6 C0.75 5.0625 0.75 5.0625 -1 4 C-0.67 2.68 -0.34 1.36 0 0 Z " fill="#0BF647" transform="translate(185,284)"/>
<path d="M0 0 C2.63150952 2.63150952 3.58545919 5.50251118 5 8.90625 C5.92971549 11.15192763 5.92971549 11.15192763 8 13 C5.625 13.1875 5.625 13.1875 3 13 C0.89172945 9.83759418 0.66182535 8.49342531 0.375 4.8125 C0.30023438 3.91144531 0.22546875 3.01039063 0.1484375 2.08203125 C0.09945313 1.39496094 0.05046875 0.70789063 0 0 Z " fill="#81E49D" transform="translate(262,163)"/>
<path d="M0 0 C0.33 0.66 0.66 1.32 1 2 C1.66 2 2.32 2 3 2 C3.33 1.34 3.66 0.68 4 0 C4.33 0.66 4.66 1.32 5 2 C4.67 2.66 4.34 3.32 4 4 C5.65 4 7.3 4 9 4 C9 4.66 9 5.32 9 6 C3.34388537 6.56561146 -0.22642128 4.71391278 -5 2 C-4.360625 1.855625 -3.72125 1.71125 -3.0625 1.5625 C-1.02454854 1.18992819 -1.02454854 1.18992819 0 0 Z " fill="#F2F2F2" transform="translate(270,320)"/>
<path d="M0 0 C0.33 0 0.66 0 1 0 C0.67 3.3 0.34 6.6 0 10 C-1.65 10.66 -3.3 11.32 -5 12 C-3.68938409 7.76570244 -2.05643741 3.92592596 0 0 Z " fill="#80E298" transform="translate(241,154)"/>
<path d="M0 0 C2.31 0 4.62 0 7 0 C7 1.32 7 2.64 7 4 C6.05125 3.95875 5.1025 3.9175 4.125 3.875 C0.89755144 3.65026182 0.89755144 3.65026182 -1 6 C-0.67 4.02 -0.34 2.04 0 0 Z " fill="#22E959" transform="translate(292,278)"/>
<path d="M0 0 C0.33 0 0.66 0 1 0 C1.3125 2.75 1.3125 2.75 1 6 C-1.125 8.5 -1.125 8.5 -4 10 C-7.3125 9.25 -7.3125 9.25 -10 8 C-7.53721199 6.768606 -5.7204945 6.92840804 -3 7 C-2.690625 6.21625 -2.38125 5.4325 -2.0625 4.625 C-1 2 -1 2 0 0 Z " fill="#87DF9F" transform="translate(215,227)"/>
<path d="M0 0 C0.33 0 0.66 0 1 0 C1.34833144 4.87664009 0.41685712 7.77050005 -2 12 C-2.99 12 -3.98 12 -5 12 C-3.68938409 7.76570244 -2.05643741 3.92592596 0 0 Z " fill="#77DF93" transform="translate(219,202)"/>
<path d="M0 0 C1.32 0.66 2.64 1.32 4 2 C4 3.98 4 5.96 4 8 C1.03 7.67 -1.94 7.34 -5 7 C-5 6.67 -5 6.34 -5 6 C-3.35 5.67 -1.7 5.34 0 5 C0 3.35 0 1.7 0 0 Z " fill="#4DC168" transform="translate(356,388)"/>
<path d="M0 0 C3.42931954 3.7559214 4.56429083 8.23466745 6 13 C3 12 3 12 1 9 C0.5859375 6.73828125 0.5859375 6.73828125 0.375 4.3125 C0.30023438 3.50425781 0.22546875 2.69601562 0.1484375 1.86328125 C0.09945313 1.24839844 0.05046875 0.63351562 0 0 Z " fill="#84E298" transform="translate(312,272)"/>
<path d="M0 0 C1.60031344 3.20062687 0.03173691 5.72271806 -1 9 C-0.34 9 0.32 9 1 9 C1 9.99 1 10.98 1 12 C0.34 12 -0.32 12 -1 12 C-1.33 12.99 -1.66 13.98 -2 15 C-2.66 15 -3.32 15 -4 15 C-2.9318153 9.88634986 -1.76892524 4.92772031 0 0 Z " fill="#22E651" transform="translate(243,153)"/>
<path d="M0 0 C0.33 0 0.66 0 1 0 C1 2.31 1 4.62 1 7 C-2.3 7 -5.6 7 -9 7 C-8.67 6.34 -8.34 5.68 -8 5 C-5.69 5 -3.38 5 -1 5 C-0.67 3.35 -0.34 1.7 0 0 Z " fill="#4AC265" transform="translate(151,389)"/>
<path d="M0 0 C2.475 0.495 2.475 0.495 5 1 C4.625 3.4375 4.625 3.4375 4 6 C3.01 6.495 3.01 6.495 2 7 C1.34 6.67 0.68 6.34 0 6 C0 4.02 0 2.04 0 0 Z " fill="#08F744" transform="translate(264,178)"/>
<path d="M0 0 C6.75 -0.125 6.75 -0.125 9 1 C9.40729228 3.32156597 9.74438677 5.6568787 10 8 C9.01 8.495 9.01 8.495 8 9 C7.34 7.02 6.68 5.04 6 3 C3.03 2.505 3.03 2.505 0 2 C0 1.34 0 0.68 0 0 Z " fill="#68CB85" transform="translate(352,386)"/>
<path d="M0 0 C0.99 0 1.98 0 3 0 C3.33 1.65 3.66 3.3 4 5 C3.34 5 2.68 5 2 5 C1.67 6.98 1.34 8.96 1 11 C0.67 11 0.34 11 0 11 C0 7.37 0 3.74 0 0 Z " fill="#60C976" transform="translate(321,381)"/>
<path d="M0 0 C0.66 0 1.32 0 2 0 C1.54965877 1.62723299 1.08944646 3.25173664 0.625 4.875 C0.36976563 5.77992188 0.11453125 6.68484375 -0.1484375 7.6171875 C-1 10 -1 10 -3 12 C-3.29162929 7.04230204 -3.12940055 3.97193147 0 0 Z " fill="#71DE8F" transform="translate(222,208)"/>
<path d="M0 0 C0.66 0.66 1.32 1.32 2 2 C-2.99296295 4.9445679 -7.33557626 5.63495936 -13 6 C-10.81214317 3.81214317 -9.98872018 3.61031035 -7.0625 3 C-4.01038668 2.36105291 -2.71347624 1.80898416 0 0 Z " fill="#E4E4E4" transform="translate(283,347)"/>
<path d="M0 0 C2.64 0 5.28 0 8 0 C8 0.33 8 0.66 8 1 C6.35 1.33 4.7 1.66 3 2 C3 4.64 3 7.28 3 10 C2.34 10 1.68 10 1 10 C0.67 6.7 0.34 3.4 0 0 Z " fill="#9BE3AD" transform="translate(248,380)"/>
<path d="M0 0 C-1.95649397 0.83764268 -3.91525556 1.66999059 -5.875 2.5 C-7.51082031 3.19609375 -7.51082031 3.19609375 -9.1796875 3.90625 C-12 5 -12 5 -14 5 C-14 4.34 -14 3.68 -14 3 C-4.13199301 -1.28234266 -4.13199301 -1.28234266 0 0 Z " fill="#88DD9F" transform="translate(212,283)"/>
<path d="M0 0 C0 0.66 0 1.32 0 2 C-1.26607607 2.53229326 -2.53810412 3.05044544 -3.8125 3.5625 C-4.52019531 3.85253906 -5.22789062 4.14257812 -5.95703125 4.44140625 C-8 5 -8 5 -11 4 C-11 3.34 -11 2.68 -11 2 C-3.375 0 -3.375 0 0 0 Z " fill="#1FE952" transform="translate(238,266)"/>
<path d="M0 0 C0.99 0.33 1.98 0.66 3 1 C3 1.99 3 2.98 3 4 C3.99 3.67 4.98 3.34 6 3 C6.33 5.31 6.66 7.62 7 10 C2.57320993 8.52440331 2.08567304 6.09942632 0 2 C0 1.34 0 0.68 0 0 Z " fill="#EAEAEA" transform="translate(185,342)"/>
<path d="M0 0 C0.33 0 0.66 0 1 0 C1.2295711 3.36704285 1.33943529 5.41370268 -0.375 8.375 C-0.91125 8.91125 -1.4475 9.4475 -2 10 C-2.66 10 -3.32 10 -4 10 C-3.52449439 8.51965236 -3.04448784 7.04074979 -2.5625 5.5625 C-2.29566406 4.73878906 -2.02882812 3.91507813 -1.75390625 3.06640625 C-1 1 -1 1 0 0 Z " fill="#7EDF96" transform="translate(213,215)"/>
<path d="M0 0 C2 1.75 2 1.75 4 4 C4 5.32 4 6.64 4 8 C3.01 8 2.02 8 1 8 C-0.42944945 5.64561267 -1.08661261 4.51967567 -0.625 1.75 C-0.41875 1.1725 -0.2125 0.595 0 0 Z " fill="#17EE52" transform="translate(256,157)"/>
<path d="M0 0 C4 3 4 3 4.4375 5.5625 C4.293125 6.366875 4.14875 7.17125 4 8 C3.01 8.66 2.02 9.32 1 10 C0.67 6.7 0.34 3.4 0 0 Z " fill="#96DFA6" transform="translate(263,262)"/>
<path d="M0 0 C2 3 2 3 2 6 C1.4225 5.67 0.845 5.34 0.25 5 C-2.19883862 3.72924102 -2.19883862 3.72924102 -6 4 C-5.67 3.01 -5.34 2.02 -5 1 C-3.35 0.67 -1.7 0.34 0 0 Z " fill="#19EB4F" transform="translate(253,150)"/>
<path d="M0 0 C0.33 0 0.66 0 1 0 C1.66 4.29 2.32 8.58 3 13 C2.01 13.33 1.02 13.66 0 14 C0 9.38 0 4.76 0 0 Z " fill="#51CD6F" transform="translate(211,381)"/>
<path d="M0 0 C1.5 1.375 1.5 1.375 3 3 C3 3.66 3 4.32 3 5 C3.66 5 4.32 5 5 5 C5.33 4.01 5.66 3.02 6 2 C6.33 3.32 6.66 4.64 7 6 C6.01 6.66 5.02 7.32 4 8 C2 6.25 2 6.25 0 4 C0 2.68 0 1.36 0 0 Z " fill="#E8E8E8" transform="translate(193,334)"/>
<path d="M0 0 C0.66 0.33 1.32 0.66 2 1 C2 1.66 2 2.32 2 3 C-1.3 3.66 -4.6 4.32 -8 5 C-7.34 3.68 -6.68 2.36 -6 1 C-5.01 1 -4.02 1 -3 1 C-2.01 0.67 -1.02 0.34 0 0 Z " fill="#93E6A8" transform="translate(197,280)"/>
<path d="M0 0 C0.99 1.485 0.99 1.485 2 3 C3.3921875 2.690625 3.3921875 2.690625 4.8125 2.375 C8 2 8 2 11 4 C10.34 4.66 9.68 5.32 9 6 C6.27130593 5.96712417 3.7033382 5.43602229 1 5 C0.67 3.35 0.34 1.7 0 0 Z " fill="#C2E9C9" transform="translate(350,381)"/>
<path d="M0 0 C0.66 0.99 1.32 1.98 2 3 C1.67 3.99 1.34 4.98 1 6 C-1.31 6 -3.62 6 -6 6 C-6 5.34 -6 4.68 -6 4 C-4.36368108 2.95107762 -2.69514137 1.95093297 -1 1 C-0.67 0.67 -0.34 0.34 0 0 Z " fill="#EEEEEE" transform="translate(274,337)"/>
<path d="M0 0 C0.66 0.33 1.32 0.66 2 1 C2.40729228 3.32156597 2.74438677 5.6568787 3 8 C0.39417629 8.93065133 -0.64198224 9.14917407 -3.25 8.0625 C-3.8275 7.711875 -4.405 7.36125 -5 7 C-3.02 7 -1.04 7 1 7 C0.67 4.69 0.34 2.38 0 0 Z " fill="#34DC64" transform="translate(316,284)"/>
<path d="M0 0 C4.05606165 0.46800711 7.46588679 0.87953208 11 3 C11 3.66 11 4.32 11 5 C9.53932801 4.54917531 8.08151968 4.08906463 6.625 3.625 C5.81289063 3.36976563 5.00078125 3.11453125 4.1640625 2.8515625 C2 2 2 2 0 0 Z " fill="#78D88D" transform="translate(300,287)"/>
<path d="M0 0 C0.99 0 1.98 0 3 0 C3 1.98 3 3.96 3 6 C2.01 6 1.02 6 0 6 C-1.125 2.25 -1.125 2.25 0 0 Z " fill="#69C683" transform="translate(347,390)"/>
<path d="M0 0 C0.66 0.66 1.32 1.32 2 2 C-0.31 4.97 -2.62 7.94 -5 11 C-5 7.58678765 -4.33132534 6.60527115 -2.5 3.8125 C-2.0359375 3.09707031 -1.571875 2.38164062 -1.09375 1.64453125 C-0.7328125 1.10183594 -0.371875 0.55914062 0 0 Z " fill="#E5E5E5" transform="translate(206,325)"/>
<path d="M0 0 C-1.4562545 0.67119549 -2.91507867 1.33681807 -4.375 2 C-5.59316406 2.556875 -5.59316406 2.556875 -6.8359375 3.125 C-9 4 -9 4 -11 4 C-11 3.34 -11 2.68 -11 2 C-4.03571429 -1.34821429 -4.03571429 -1.34821429 0 0 Z " fill="#92E0A6" transform="translate(239,271)"/>
<path d="M0 0 C0.99 0 1.98 0 3 0 C3.33 1.32 3.66 2.64 4 4 C5.98 4 7.96 4 10 4 C9.67 4.66 9.34 5.32 9 6 C6.1875 5.8125 6.1875 5.8125 3 5 C1.125 2.4375 1.125 2.4375 0 0 Z " fill="#94D9A6" transform="translate(254,268)"/>
<path d="M0 0 C2.64 0 5.28 0 8 0 C8.33 1.32 8.66 2.64 9 4 C6.03 3.01 3.06 2.02 0 1 C0 0.67 0 0.34 0 0 Z " fill="#3ED267" transform="translate(255,262)"/>
<path d="M0 0 C1.4606285 2.64738916 2 3.89448334 2 7 C1.01 7 0.02 7 -1 7 C-1.33 5.02 -1.66 3.04 -2 1 C-1.34 0.67 -0.68 0.34 0 0 Z " fill="#4EE075" transform="translate(302,259)"/>
<path d="M0 0 C0.95465783 2.16967689 1.14401212 3.56328793 0.3984375 5.82421875 C-0.35870385 7.5684743 -1.17609198 9.28627131 -2 11 C-2.33 11 -2.66 11 -3 11 C-2.67 8.03 -2.34 5.06 -2 2 C-1.34 2 -0.68 2 0 2 C0 1.34 0 0.68 0 0 Z " fill="#60DA7E" transform="translate(247,154)"/>
<path d="M0 0 C0.66 0.66 1.32 1.32 2 2 C0.88625 2.474375 -0.2275 2.94875 -1.375 3.4375 C-3.26710994 4.25306463 -5.15712709 5.07856355 -7 6 C-7.66 5.34 -8.32 4.68 -9 4 C-3.26833631 0.33810376 -3.26833631 0.33810376 0 0 Z " fill="#E5E5E5" transform="translate(262,321)"/>
<path d="M0 0 C5.94 0 11.88 0 18 0 C17.34 0.66 16.68 1.32 16 2 C13.24410223 1.98252073 10.61213324 1.86136729 7.875 1.625 C7.12089844 1.56828125 6.36679687 1.5115625 5.58984375 1.453125 C3.72581904 1.3115535 1.86278863 1.15700041 0 1 C0 0.67 0 0.34 0 0 Z " fill="#CFCFCF" transform="translate(256,311)"/>
<path d="M0 0 C2.64 0 5.28 0 8 0 C8 0.99 8 1.98 8 3 C5.6568787 2.74438677 3.32156597 2.40729228 1 2 C0.67 1.34 0.34 0.68 0 0 Z " fill="#08F93E" transform="translate(307,286)"/>
<path d="M0 0 C1.99097846 2.98646769 2.94124926 5.59687262 4 9 C3.01 9 2.02 9 1 9 C-0.4783226 6.04335481 -0.06032783 3.25770263 0 0 Z " fill="#78E197" transform="translate(308,263)"/>
<path d="M0 0 C2.50298434 2.93828597 3.46930939 5.17902761 4 9 C2.68 8.34 1.36 7.68 0 7 C0 4.69 0 2.38 0 0 Z " fill="#7FE296" transform="translate(254,146)"/>
<path d="M0 0 C2.64 0 5.28 0 8 0 C8.33 0.66 8.66 1.32 9 2 C7.02 2 5.04 2 3 2 C2.67 2.99 2.34 3.98 2 5 C2 4.01 2 3.02 2 2 C1.34 2 0.68 2 0 2 C0 1.34 0 0.68 0 0 Z " fill="#C4E6C8" transform="translate(348,388)"/>
<path d="M0 0 C2.31 0 4.62 0 7 0 C7 0.66 7 1.32 7 2 C4.69 2.66 2.38 3.32 0 4 C0 2.68 0 1.36 0 0 Z " fill="#42D169" transform="translate(180,378)"/>
<path d="M0 0 C-1.65 0.66 -3.3 1.32 -5 2 C-5 2.66 -5 3.32 -5 4 C-6.32 3.34 -7.64 2.68 -9 2 C-5.945634 -1.054366 -3.9532319 -1.22686507 0 0 Z " fill="#EAEAEA" transform="translate(256,313)"/>
<path d="M0 0 C1.65 0 3.3 0 5 0 C5 0.99 5 1.98 5 3 C3.35 3.33 1.7 3.66 0 4 C0 2.68 0 1.36 0 0 Z " fill="#1AED51" transform="translate(200,281)"/>
<path d="M0 0 C-0.33 0.99 -0.66 1.98 -1 3 C-4.0625 4.1875 -4.0625 4.1875 -7 5 C-7.66 4.34 -8.32 3.68 -9 3 C-2.25 0 -2.25 0 0 0 Z " fill="#72DA8C" transform="translate(218,272)"/>
<path d="M0 0 C1.98 0.99 1.98 0.99 4 2 C4 4.31 4 6.62 4 9 C2.00902154 6.01353231 1.05875074 3.40312738 0 0 Z " fill="#7ADB92" transform="translate(290,240)"/>
<path d="M0 0 C1.32 0.33 2.64 0.66 4 1 C4 2.98 4 4.96 4 7 C1 5 1 5 0.3125 2.375 C0.209375 1.59125 0.10625 0.8075 0 0 Z " fill="#16EF4C" transform="translate(291,236)"/>
<path d="M0 0 C0.33 0 0.66 0 1 0 C1.125 5.75 1.125 5.75 0 8 C-0.99 8 -1.98 8 -3 8 C-1.125 2.25 -1.125 2.25 0 0 Z " fill="#84E39D" transform="translate(229,180)"/>
<path d="M0 0 C0.66 0 1.32 0 2 0 C2 2.31 2 4.62 2 7 C1.01 6.67 0.02 6.34 -1 6 C-1.042721 4.33388095 -1.04063832 2.66617115 -1 1 C-0.67 0.67 -0.34 0.34 0 0 Z " fill="#53C573" transform="translate(141,381)"/>
<path d="M0 0 C4.67692308 1.47692308 4.67692308 1.47692308 6.3125 4.125 C6.539375 4.74375 6.76625 5.3625 7 6 C4.525 5.01 4.525 5.01 2 4 C2 3.34 2 2.68 2 2 C1.01 1.67 0.02 1.34 -1 1 C-0.67 0.67 -0.34 0.34 0 0 Z " fill="#E8E8E8" transform="translate(283,315)"/>
<path d="M0 0 C2.64 0 5.28 0 8 0 C8 0.99 8 1.98 8 3 C4.62537285 2.45276317 2.91765 1.9451 0 0 Z " fill="#48D86C" transform="translate(248,265)"/>
<path d="M0 0 C2.11180592 2.57089417 3.66306057 4.63060567 4 8 C3.34 8.66 2.68 9.32 2 10 C0.39644899 6.49223216 -0.22036864 3.85645121 0 0 Z " fill="#85E099" transform="translate(258,155)"/>
<path d="M0 0 C2.64 0.33 5.28 0.66 8 1 C4.86501708 2.85776765 2.62528568 3.20140476 -1 3 C-0.67 2.01 -0.34 1.02 0 0 Z " fill="#EEEEEE" transform="translate(259,341)"/>
<path d="M0 0 C0.66 0 1.32 0 2 0 C0.8141763 3.37503669 -0.27573689 5.64722731 -3 8 C-3 4.40142046 -2.04169485 2.90548882 0 0 Z " fill="#E2E2E2" transform="translate(215,329)"/>
<path d="M0 0 C0.99 0.66 1.98 1.32 3 2 C0.03 2.66 -2.94 3.32 -6 4 C-4.03617993 2.49440461 -2.21736634 1.10868317 0 0 Z " fill="#E3E3E3" transform="translate(330,349)"/>
<path d="M0 0 C0.66 0 1.32 0 2 0 C0.92598892 2.91517292 0.22189824 4.77810176 -2 7 C-2.33 6.34 -2.66 5.68 -3 5 C-1.6875 2.375 -1.6875 2.375 0 0 Z " fill="#E6E6E6" transform="translate(206,344)"/>
<path d="M0 0 C0.33 0 0.66 0 1 0 C1.33 2.31 1.66 4.62 2 7 C1.01 7 0.02 7 -1 7 C-2 4 -2 4 -1.0625 1.8125 C-0.5365625 0.9153125 -0.5365625 0.9153125 0 0 Z " fill="#EBEBEB" transform="translate(253,330)"/>
<path d="M0 0 C0 0.99 0 1.98 0 3 C-1.98 3.99 -1.98 3.99 -4 5 C-4.33 4.34 -4.66 3.68 -5 3 C-3.35 2.01 -1.7 1.02 0 0 Z " fill="#EBEBEB" transform="translate(339,344)"/>
<path d="M0 0 C1.32 1.32 2.64 2.64 4 4 C3.67 4.66 3.34 5.32 3 6 C2.01 5.67 1.02 5.34 0 5 C0 3.35 0 1.7 0 0 Z " fill="#EDEDED" transform="translate(255,337)"/>
<path d="M0 0 C0.66 0.33 1.32 0.66 2 1 C2 1.66 2 2.32 2 3 C2.99 2.67 3.98 2.34 5 2 C5 2.66 5 3.32 5 4 C2.69 3.67 0.38 3.34 -2 3 C-1.34 2.67 -0.68 2.34 0 2 C0 1.34 0 0.68 0 0 Z " fill="#E6E6E6" transform="translate(303,348)"/>
<path d="M0 0 C0.33 0.99 0.66 1.98 1 3 C0.34 3 -0.32 3 -1 3 C-1.33 3.66 -1.66 4.32 -2 5 C-2.99 4.67 -3.98 4.34 -5 4 C-3.35 2.68 -1.7 1.36 0 0 Z " fill="#E4E4E4" transform="translate(324,338)"/>
<path d="M0 0 C0.33 1.32 0.66 2.64 1 4 C-0.98 4.99 -0.98 4.99 -3 6 C-1.125 1.125 -1.125 1.125 0 0 Z " fill="#E7E7E7" transform="translate(210,319)"/>
<path d="M0 0 C1.32 1.32 2.64 2.64 4 4 C2.68 4 1.36 4 0 4 C-0.33 3.34 -0.66 2.68 -1 2 C-0.67 1.34 -0.34 0.68 0 0 Z " fill="#EAEAEA" transform="translate(298,345)"/>
<path d="M0 0 C0.66 0 1.32 0 2 0 C1.34 1.32 0.68 2.64 0 4 C-0.66 4 -1.32 4 -2 4 C-1 1 -1 1 0 0 Z " fill="#EDEDED" transform="translate(287,344)"/>
<path d="M0 0 C0.33 0 0.66 0 1 0 C1 2.97 1 5.94 1 9 C0.67 9 0.34 9 0 9 C0 6.03 0 3.06 0 0 Z " fill="#FFFFFF" transform="translate(220,343)"/>
<path d="M0 0 C0.99 0.33 1.98 0.66 3 1 C3 1.66 3 2.32 3 3 C2.01 3.33 1.02 3.66 0 4 C0 2.68 0 1.36 0 0 Z " fill="#EDEDED" transform="translate(184,338)"/>
<path d="M0 0 C0.99 0.495 0.99 0.495 2 1 C2 2.65 2 4.3 2 6 C1.34 6 0.68 6 0 6 C0 4.02 0 2.04 0 0 Z " fill="#ECECEC" transform="translate(191,331)"/>
<path d="M0 0 C2.31 0.33 4.62 0.66 7 1 C7 1.33 7 1.66 7 2 C4.69 1.67 2.38 1.34 0 1 C0 0.67 0 0.34 0 0 Z " fill="#E7E7E7" transform="translate(312,341)"/>
<path d="M0 0 C0.33 0.66 0.66 1.32 1 2 C0.01 2.99 -0.98 3.98 -2 5 C-1.125 1.125 -1.125 1.125 0 0 Z " fill="#E2E2E2" transform="translate(210,339)"/>
<path d="M0 0 C0.99 0.33 1.98 0.66 3 1 C2.67 1.99 2.34 2.98 2 4 C1.34 2.68 0.68 1.36 0 0 Z " fill="#E0E0E0" transform="translate(294,343)"/>
<path d="M0 0 C0.66 0.99 1.32 1.98 2 3 C1.01 3 0.02 3 -1 3 C-0.67 2.01 -0.34 1.02 0 0 Z " fill="#E8E8E8" transform="translate(180,331)"/>
<path d="M0 0 C1.32 0.33 2.64 0.66 4 1 C4 1.66 4 2.32 4 3 C3.34 3 2.68 3 2 3 C2 2.34 2 1.68 2 1 C1.34 0.67 0.68 0.34 0 0 Z " fill="#E4E4E4" transform="translate(274,312)"/>
<path d="M0 0 C2 2 2 2 2 4 C1.34 4 0.68 4 0 4 C0 2.68 0 1.36 0 0 Z " fill="#E3E3E3" transform="translate(325,334)"/>
<path d="M0 0 C0.66 0.33 1.32 0.66 2 1 C0.35 1.33 -1.3 1.66 -3 2 C-2.01 1.34 -1.02 0.68 0 0 Z " fill="#EBEBEB" transform="translate(281,314)"/>
<path d="M0 0 C0.66 0.66 1.32 1.32 2 2 C1.01 2.33 0.02 2.66 -1 3 C-0.67 2.01 -0.34 1.02 0 0 Z " fill="#E8E8E8" transform="translate(213,314)"/>
<path d="M0 0 C0.33 0.99 0.66 1.98 1 3 C0.34 3 -0.32 3 -1 3 C-0.67 2.01 -0.34 1.02 0 0 Z " fill="#FBFBFB" transform="translate(213,318)"/>
<path d="M0 0 C4 1 4 1 4 1 Z " fill="#D0D0D0" transform="translate(255,352)"/>
<path d="M0 0 C1 4 1 4 1 4 Z " fill="#FFFFFF" transform="translate(220,336)"/>
<path d="M0 0 C0.99 0.33 1.98 0.66 3 1 C2.01 1.33 1.02 1.66 0 2 C0 1.34 0 0.68 0 0 Z " fill="#FFFFFF" transform="translate(206,329)"/>
<path d="M0 0 C0.99 0.33 1.98 0.66 3 1 C2.01 1 1.02 1 0 1 C0 0.67 0 0.34 0 0 Z " fill="#F7F7F7" transform="translate(275,322)"/>
<path d="M0 0 C0.66 0.66 1.32 1.32 2 2 C1.01 2.495 1.01 2.495 0 3 C0 2.01 0 1.02 0 0 Z " fill="#FFFFFF" transform="translate(215,319)"/>
<path d="M0 0 C3 1 3 1 3 1 Z " fill="#C9C9C9" transform="translate(308,352)"/>
<path d="M0 0 C0.66 0.66 1.32 1.32 2 2 C1.34 2 0.68 2 0 2 C0 1.34 0 0.68 0 0 Z " fill="#DFDFDF" transform="translate(333,348)"/>
<path d="M0 0 C0.66 0 1.32 0 2 0 C1.67 0.66 1.34 1.32 1 2 C0.67 1.34 0.34 0.68 0 0 Z " fill="#DEDEDE" transform="translate(339,342)"/>
<path d="M0 0 C0.66 0.66 1.32 1.32 2 2 C1.34 2 0.68 2 0 2 C0 1.34 0 0.68 0 0 Z " fill="#FFFFFF" transform="translate(308,339)"/>
<path d="M0 0 C0.99 0.495 0.99 0.495 2 1 C1.01 1.495 1.01 1.495 0 2 C0 1.34 0 0.68 0 0 Z " fill="#E3E3E3" transform="translate(182,337)"/>
<path d="M0 0 C0.66 0 1.32 0 2 0 C1.67 0.66 1.34 1.32 1 2 C0.67 1.34 0.34 0.68 0 0 Z " fill="#FFFFFF" transform="translate(252,337)"/>
<path d="M0 0 C0.99 0.495 0.99 0.495 2 1 C1.01 1.495 1.01 1.495 0 2 C0 1.34 0 0.68 0 0 Z " fill="#FFFFFF" transform="translate(220,332)"/>
<path d="M0 0 C0.66 0 1.32 0 2 0 C1.67 0.66 1.34 1.32 1 2 C0.67 1.34 0.34 0.68 0 0 Z " fill="#D5D5D5" transform="translate(253,327)"/>
<path d="M0 0 C0.33 0.66 0.66 1.32 1 2 C0.34 1.67 -0.32 1.34 -1 1 C-0.67 0.67 -0.34 0.34 0 0 Z " fill="#FFFFFF" transform="translate(211,323)"/>
<path d="M0 0 C0.33 0.66 0.66 1.32 1 2 C0.34 1.67 -0.32 1.34 -1 1 C-0.67 0.67 -0.34 0.34 0 0 Z " fill="#FFFFFF" transform="translate(242,321)"/>
<path d="M0 0 C3 1 3 1 3 1 Z " fill="#D7D7D7" transform="translate(278,313)"/>
<path d="M0 0 C2 1 2 1 2 1 Z " fill="#E5E5E5" transform="translate(202,351)"/>
<path d="" fill="#FFFFFF" transform="translate(0,0)"/>
<path d="M0 0 C2 1 2 1 2 1 Z " fill="#FFFFFF" transform="translate(305,347)"/>
<path d="M0 0 C2 1 2 1 2 1 Z " fill="#FFFFFF" transform="translate(275,347)"/>
<path d="M0 0 C2 1 2 1 2 1 Z " fill="#FFFFFF" transform="translate(275,345)"/>
<path d="" fill="#FFFFFF" transform="translate(0,0)"/>
<path d="M0 0 C2 1 2 1 2 1 Z " fill="#FFFFFF" transform="translate(309,343)"/>
<path d="" fill="#FFFFFF" transform="translate(0,0)"/>
<path d="M0 0 C2 1 2 1 2 1 Z " fill="#FFFFFF" transform="translate(195,343)"/>
<path d="" fill="#FFFFFF" transform="translate(0,0)"/>
<path d="" fill="#FFFFFF" transform="translate(0,0)"/>
<path d="M0 0 C2 1 2 1 2 1 Z " fill="#FFFFFF" transform="translate(275,341)"/>
<path d="M0 0 C2 1 2 1 2 1 Z " fill="#FFFFFF" transform="translate(326,339)"/>
<path d="" fill="#CACACA" transform="translate(0,0)"/>
<path d="" fill="#D2D2D2" transform="translate(0,0)"/>
<path d="M0 0 C2 1 2 1 2 1 Z " fill="#FFFFFF" transform="translate(208,338)"/>
<path d="" fill="#D1D1D1" transform="translate(0,0)"/>
<path d="M0 0 C2 1 2 1 2 1 Z " fill="#FFFFFF" transform="translate(185,335)"/>
<path d="" fill="#FFFFFF" transform="translate(0,0)"/>
<path d="M0 0 C2 1 2 1 2 1 Z " fill="#FFFFFF" transform="translate(187,334)"/>
<path d="M0 0 C2 1 2 1 2 1 Z " fill="#FFFFFF" transform="translate(249,333)"/>
<path d="" fill="#FFFFFF" transform="translate(0,0)"/>
<path d="" fill="#FFFFFF" transform="translate(0,0)"/>
<path d="M0 0 C2 1 2 1 2 1 Z " fill="#FFFFFF" transform="translate(207,331)"/>
<path d="" fill="#FFFFFF" transform="translate(0,0)"/>
<path d="M0 0 C2 1 2 1 2 1 Z " fill="#FFFFFF" transform="translate(249,330)"/>
<path d="" fill="#FFFFFF" transform="translate(0,0)"/>
<path d="" fill="#FFFFFF" transform="translate(0,0)"/>
<path d="" fill="#FFFFFF" transform="translate(0,0)"/>
<path d="M0 0 C2 1 2 1 2 1 Z " fill="#FFFFFF" transform="translate(253,322)"/>
<path d="M0 0 C2 1 2 1 2 1 Z " fill="#FFFFFF" transform="translate(216,322)"/>
<path d="" fill="#FFFFFF" transform="translate(0,0)"/>
<path d="M0 0 C2 1 2 1 2 1 Z " fill="#FFFFFF" transform="translate(275,320)"/>
<path d="" fill="#D7D7D7" transform="translate(0,0)"/>
<path d="M0 0 C2 1 2 1 2 1 Z " fill="#FFFFFF" transform="translate(280,317)"/>
<path d="M0 0 C2 1 2 1 2 1 Z " fill="#FFFFFF" transform="translate(214,317)"/>
<path d="" fill="#FFFFFF" transform="translate(0,0)"/>
<path d="" fill="#FFFFFF" transform="translate(0,0)"/>
<path d="" fill="#FFFFFF" transform="translate(0,0)"/>
<path d="" fill="#FFFFFF" transform="translate(0,0)"/>
<path d="" fill="#FFFFFF" transform="translate(0,0)"/>
<path d="" fill="#FFFFFF" transform="translate(0,0)"/>
<path d="" fill="#FFFFFF" transform="translate(0,0)"/>
<path d="" fill="#FFFFFF" transform="translate(0,0)"/>
<path d="" fill="#FFFFFF" transform="translate(0,0)"/>
<path d="" fill="#FFFFFF" transform="translate(0,0)"/>
<path d="" fill="#FFFFFF" transform="translate(0,0)"/>
<path d="" fill="#FFFFFF" transform="translate(0,0)"/>
<path d="" fill="#E8E8E8" transform="translate(0,0)"/>
<path d="" fill="#FFFFFF" transform="translate(0,0)"/>
<path d="" fill="#F0F0F0" transform="translate(0,0)"/>
<path d="" fill="#FFFFFF" transform="translate(0,0)"/>
<path d="" fill="#FFFFFF" transform="translate(0,0)"/>
<path d="" fill="#FFFFFF" transform="translate(0,0)"/>
<path d="" fill="#FFFFFF" transform="translate(0,0)"/>
<path d="" fill="#FFFFFF" transform="translate(0,0)"/>
<path d="" fill="#FFFFFF" transform="translate(0,0)"/>
<path d="" fill="#FFFFFF" transform="translate(0,0)"/>
<path d="" fill="#FFFFFF" transform="translate(0,0)"/>
<path d="" fill="#FFFFFF" transform="translate(0,0)"/>
<path d="" fill="#FFFFFF" transform="translate(0,0)"/>
<path d="" fill="#FFFFFF" transform="translate(0,0)"/>
<path d="" fill="#FFFFFF" transform="translate(0,0)"/>
<path d="" fill="#FFFFFF" transform="translate(0,0)"/>
<path d="" fill="#FFFFFF" transform="translate(0,0)"/>
<path d="" fill="#FFFFFF" transform="translate(0,0)"/>
<path d="" fill="#FFFFFF" transform="translate(0,0)"/>
<path d="" fill="#FFFFFF" transform="translate(0,0)"/>
<path d="" fill="#FFFFFF" transform="translate(0,0)"/>
<path d="" fill="#FFFFFF" transform="translate(0,0)"/>
<path d="" fill="#FFFFFF" transform="translate(0,0)"/>
<path d="" fill="#FFFFFF" transform="translate(0,0)"/>
<path d="" fill="#FFFFFF" transform="translate(0,0)"/>
<path d="" fill="#FFFFFF" transform="translate(0,0)"/>
<path d="" fill="#FFFFFF" transform="translate(0,0)"/>
<path d="" fill="#FFFFFF" transform="translate(0,0)"/>
<path d="" fill="#FFFFFF" transform="translate(0,0)"/>
<path d="" fill="#FFFFFF" transform="translate(0,0)"/>
<path d="" fill="#C3C3C3" transform="translate(0,0)"/>
<path d="" fill="#FFFFFF" transform="translate(0,0)"/>
<path d="" fill="#C1C1C1" transform="translate(0,0)"/>
<path d="" fill="#EFEFEF" transform="translate(0,0)"/>
<path d="" fill="#F3F3F3" transform="translate(0,0)"/>
<path d="" fill="#FFFFFF" transform="translate(0,0)"/>
<path d="" fill="#FFFFFF" transform="translate(0,0)"/>
<path d="" fill="#FFFFFF" transform="translate(0,0)"/>
<path d="" fill="#FFFFFF" transform="translate(0,0)"/>
<path d="" fill="#DBDBDB" transform="translate(0,0)"/>
<path d="" fill="#FFFFFF" transform="translate(0,0)"/>
<path d="" fill="#FFFFFF" transform="translate(0,0)"/>
<path d="" fill="#FFFFFF" transform="translate(0,0)"/>
<path d="" fill="#FFFFFF" transform="translate(0,0)"/>
<path d="" fill="#FFFFFF" transform="translate(0,0)"/>
<path d="" fill="#EAEAEA" transform="translate(0,0)"/>
<path d="" fill="#FFFFFF" transform="translate(0,0)"/>
<path d="" fill="#FFFFFF" transform="translate(0,0)"/>
<path d="" fill="#E3E3E3" transform="translate(0,0)"/>
<path d="" fill="#FFFFFF" transform="translate(0,0)"/>
<path d="" fill="#FFFFFF" transform="translate(0,0)"/>
<path d="" fill="#EBEBEB" transform="translate(0,0)"/>
<path d="" fill="#EDEDED" transform="translate(0,0)"/>
<path d="" fill="#FFFFFF" transform="translate(0,0)"/>
<path d="" fill="#FFFFFF" transform="translate(0,0)"/>
<path d="" fill="#FFFFFF" transform="translate(0,0)"/>
<path d="" fill="#FFFFFF" transform="translate(0,0)"/>
<path d="" fill="#FFFFFF" transform="translate(0,0)"/>
<path d="" fill="#FFFFFF" transform="translate(0,0)"/>
<path d="" fill="#FFFFFF" transform="translate(0,0)"/>
<path d="" fill="#EBEBEB" transform="translate(0,0)"/>
<path d="" fill="#FFFFFF" transform="translate(0,0)"/>
<path d="" fill="#FFFFFF" transform="translate(0,0)"/>
<path d="" fill="#FFFFFF" transform="translate(0,0)"/>
<path d="" fill="#EBEBEB" transform="translate(0,0)"/>
<path d="" fill="#FFFFFF" transform="translate(0,0)"/>
<path d="" fill="#FFFFFF" transform="translate(0,0)"/>
<path d="" fill="#FFFFFF" transform="translate(0,0)"/>
<path d="" fill="#FFFFFF" transform="translate(0,0)"/>
<path d="" fill="#FFFFFF" transform="translate(0,0)"/>
<path d="" fill="#ECECEC" transform="translate(0,0)"/>
<path d="" fill="#FFFFFF" transform="translate(0,0)"/>
<path d="" fill="#EFEFEF" transform="translate(0,0)"/>
<path d="" fill="#EEEEEE" transform="translate(0,0)"/>
<path d="" fill="#FFFFFF" transform="translate(0,0)"/>
<path d="" fill="#FFFFFF" transform="translate(0,0)"/>
<path d="" fill="#FFFFFF" transform="translate(0,0)"/>
<path d="" fill="#FFFFFF" transform="translate(0,0)"/>
<path d="" fill="#FFFFFF" transform="translate(0,0)"/>
<path d="" fill="#FFFFFF" transform="translate(0,0)"/>
<path d="" fill="#F0F0F0" transform="translate(0,0)"/>
<path d="" fill="#FFFFFF" transform="translate(0,0)"/>
<path d="" fill="#FFFFFF" transform="translate(0,0)"/>
<path d="" fill="#FFFFFF" transform="translate(0,0)"/>
<path d="" fill="#FFFFFF" transform="translate(0,0)"/>
<path d="" fill="#FFFFFF" transform="translate(0,0)"/>
<path d="" fill="#FFFFFF" transform="translate(0,0)"/>
<path d="" fill="#FFFFFF" transform="translate(0,0)"/>
<path d="" fill="#EEEEEE" transform="translate(0,0)"/>
<path d="" fill="#E8E8E8" transform="translate(0,0)"/>
<path d="" fill="#F3F3F3" transform="translate(0,0)"/>
<path d="" fill="#FFFFFF" transform="translate(0,0)"/>
<path d="" fill="#EFEFEF" transform="translate(0,0)"/>
<path d="" fill="#FFFFFF" transform="translate(0,0)"/>
<path d="" fill="#EFEFEF" transform="translate(0,0)"/>
<path d="" fill="#FFFFFF" transform="translate(0,0)"/>
<path d="" fill="#FFFFFF" transform="translate(0,0)"/>
<path d="" fill="#FFFFFF" transform="translate(0,0)"/>
<path d="" fill="#FFFFFF" transform="translate(0,0)"/>
<path d="" fill="#FFFFFF" transform="translate(0,0)"/>
<path d="" fill="#FFFFFF" transform="translate(0,0)"/>
<path d="" fill="#FFFFFF" transform="translate(0,0)"/>
<path d="" fill="#FFFFFF" transform="translate(0,0)"/>
<path d="" fill="#FFFFFF" transform="translate(0,0)"/>
<path d="" fill="#FFFFFF" transform="translate(0,0)"/>
<path d="" fill="#F2F2F2" transform="translate(0,0)"/>
</svg>
